<svg width="500" height="209" xmlns="http://www.w3.org/2000/svg">
 <style type="text/css">.st0{fill:#FFFFFF;}</style>

 <g>
  <title>background</title>
  <rect x="-1" y="-1" width="502" height="211" id="canvas_background" fill="none"/>
 </g>
 <g>
  <title>Layer 1</title>
  <g id="svg_33">
   <g id="svg_34">
    <path class="st0" d="m85.223572,56.750061c0,4.627411 -0.758575,8.875534 -2.275757,12.744354c-1.517181,3.868805 -3.717102,7.206619 -6.523895,10.013397c-2.806793,2.806793 -6.144592,4.930847 -10.089264,6.523895c-3.944672,1.517181 -8.268646,2.275787 -13.047791,2.275787l-24.047348,0l0,-63.114838l24.047348,0c4.779144,0 9.178955,0.758591 13.047791,2.351639c3.944672,1.59304 7.282471,3.717102 10.089264,6.523888c2.806793,2.806786 4.930847,6.068733 6.523895,9.937553c1.441315,3.86882 2.275757,8.116928 2.275757,12.744339l0,-0.000015zm-12.061584,0c0,-3.489517 -0.45517,-6.599731 -1.365479,-9.330673s-2.275757,-5.082565 -3.944672,-6.97905c-1.744781,-1.896469 -3.792969,-3.337799 -6.296295,-4.399826c-2.427521,-0.986168 -5.234314,-1.517181 -8.344543,-1.517181l-12.289185,0l0,44.377609l12.289185,0c3.110229,0 5.841187,-0.531006 8.344543,-1.517181c2.42749,-0.98616 4.551514,-2.503357 6.296295,-4.399826c1.744751,-1.896469 3.034363,-4.248123 3.944672,-6.97905s1.365479,-5.765289 1.365479,-9.254822z" id="svg_35"/>
    <path class="st0" d="m113.063904,42.867844c3.33783,0 6.296326,0.531006 9.027283,1.593033c2.730896,1.062042 5.08255,2.579224 6.979004,4.551559c1.896484,1.972336 3.413696,4.399826 4.475708,7.206619c1.062012,2.88266 1.593048,6.068726 1.593048,9.558258c0,3.565384 -0.531036,6.751465 -1.593048,9.558258c-1.062012,2.882645 -2.503357,5.310135 -4.475708,7.282471c-1.896454,1.972351 -4.248108,3.565399 -6.979004,4.627411c-2.730957,1.062042 -5.76532,1.593048 -9.027283,1.593048c-3.337769,0 -6.372131,-0.531006 -9.103088,-1.593048c-2.730927,-1.062012 -5.082581,-2.579208 -6.979034,-4.627411c-1.896484,-1.972336 -3.413666,-4.399826 -4.475677,-7.282471c-1.062042,-2.88266 -1.593079,-6.068741 -1.593079,-9.558258c0,-3.489532 0.531036,-6.675598 1.593079,-9.558258c1.062012,-2.88266 2.579193,-5.234283 4.475677,-7.206619c1.896454,-1.972336 4.248108,-3.489517 6.979034,-4.551559c2.730957,-1.062027 5.76532,-1.593033 9.103088,-1.593033zm0,37.777863c3.717102,0 6.448059,-1.213745 8.268677,-3.717087c1.820618,-2.503357 2.65506,-6.144608 2.65506,-10.999588c0,-4.854996 -0.910309,-8.496231 -2.65506,-10.999588s-4.551575,-3.792953 -8.268677,-3.792953c-3.792938,0 -6.599731,1.289612 -8.420349,3.792953c-1.820618,2.579224 -2.730927,6.220459 -2.730927,10.999588c0,4.779129 0.910309,8.420364 2.730927,10.999588c1.820618,2.503342 4.627411,3.717087 8.420349,3.717087z" id="svg_36"/>
    <path class="st0" d="m153.421021,49.012436c0.910278,-0.910309 1.820587,-1.744766 2.882629,-2.503357c0.986145,-0.758591 2.048187,-1.44133 3.186096,-1.972336c1.137878,-0.531006 2.351624,-0.986176 3.565369,-1.289612c1.289612,-0.303436 2.65506,-0.455154 4.172241,-0.455154c2.42749,0 4.627441,0.379303 6.523926,1.21376c1.896454,0.834442 3.489502,1.972321 4.703247,3.489517c1.289612,1.517181 2.19989,3.261948 2.882629,5.386002c0.682739,2.048187 0.986176,4.399826 0.986176,6.903168l0,28.523071l-10.772003,0l0,-28.523071c0,-2.730927 -0.606873,-4.85498 -1.896484,-6.372162c-1.213745,-1.517181 -3.186066,-2.275772 -5.689423,-2.275772c-1.896484,0 -3.641266,0.455154 -5.234283,1.289612c-1.593048,0.834442 -3.186096,1.972336 -4.627411,3.413651l0,32.467743l-10.772003,0l0,-44.756927l6.599731,0c1.365479,0 2.275787,0.682739 2.730957,1.972351l0.758606,3.489517z" id="svg_37"/>
    <path class="st0" d="m191.502319,49.771027c5.158386,-4.703278 11.378845,-7.054901 18.58548,-7.054901c2.65506,0 4.930847,0.455154 7.054901,1.289612c2.048218,0.834442 3.792969,2.048187 5.234314,3.565369s2.503326,3.337799 3.261902,5.461868c0.758606,2.124054 1.137909,4.475693 1.137909,6.97905l0,28.295471l-4.85498,0c-0.986176,0 -1.820618,-0.151733 -2.351654,-0.45517c-0.531006,-0.303436 -0.986145,-0.910309 -1.289612,-1.820618l-0.986145,-3.261932c-1.137878,0.986176 -2.275787,1.896469 -3.33783,2.65506c-1.062012,0.758606 -2.19989,1.44133 -3.337769,1.972351c-1.137878,0.531006 -2.427521,0.910309 -3.717133,1.213745c-1.289581,0.303436 -2.806793,0.379288 -4.399811,0.379288c-1.896484,0 -3.641235,-0.227585 -5.234283,-0.758591c-1.593048,-0.531006 -2.958527,-1.289612 -4.172272,-2.275787c-1.137878,-0.986145 -2.048187,-2.275757 -2.730927,-3.792938c-0.606842,-1.517197 -0.986176,-3.261963 -0.986176,-5.31015c0,-1.137894 0.151733,-2.275787 0.531006,-3.413666c0.379303,-1.137878 0.986206,-2.199921 1.820618,-3.186081c0.834473,-0.986176 1.972351,-1.972336 3.33783,-2.882645c1.365479,-0.910309 3.034363,-1.668915 5.006714,-2.351639c1.972321,-0.682739 4.323975,-1.213745 6.979034,-1.6689c2.65506,-0.455154 5.689423,-0.682739 9.103119,-0.758606l0,-2.579193c0,-2.958527 -0.606873,-5.234283 -1.896484,-6.675629c-1.289612,-1.441315 -3.110229,-2.124039 -5.53772,-2.124039c-1.744781,0 -3.186096,0.22757 -4.323975,0.606857c-1.137909,0.379303 -2.124084,0.834473 -3.034363,1.365479c-0.834473,0.531006 -1.668945,0.986176 -2.351654,1.365463c-0.682709,0.379288 -1.517181,0.606873 -2.351654,0.606873c-0.758575,0 -1.365448,-0.227585 -1.896484,-0.606873c-0.531006,-0.379288 -0.910278,-0.834457 -1.289581,-1.365463l-1.972321,-3.413666zm24.730072,19.419952c-3.110229,0.151718 -5.765289,0.379288 -7.813507,0.834442c-2.124023,0.379303 -3.792969,0.910309 -5.08255,1.517181c-1.289612,0.606873 -2.199921,1.289612 -2.730927,2.124054c-0.531006,0.834457 -0.834473,1.668915 -0.834473,2.65509c0,1.896469 0.531036,3.261932 1.668945,4.020538c1.137878,0.834442 2.579193,1.213745 4.39978,1.213745c2.199951,0 4.096405,-0.379303 5.76532,-1.213745c1.593048,-0.834473 3.186096,-2.048218 4.703278,-3.641251l0,-7.510056l-0.075867,0z" id="svg_38"/>
    <path class="st0" d="m268.878662,53.032974c-0.303436,0.379288 -0.606873,0.758591 -0.910309,0.98616c-0.303436,0.227585 -0.758606,0.379303 -1.365479,0.379303c-0.531006,0 -1.062012,-0.151718 -1.593048,-0.531006c-0.530975,-0.303436 -1.137878,-0.682739 -1.896454,-1.137894c-0.758606,-0.455154 -1.593048,-0.834457 -2.579224,-1.137894c-0.986145,-0.303436 -2.275757,-0.531006 -3.717102,-0.531006c-1.896454,0 -3.565369,0.379288 -5.006714,1.062012c-1.441315,0.682739 -2.579193,1.668915 -3.565369,2.958527c-0.910309,1.289597 -1.668884,2.806778 -2.124054,4.627411c-0.45517,1.820618 -0.682739,3.868805 -0.682739,6.144592c0,2.351624 0.22757,4.475677 0.758606,6.372162c0.531006,1.896484 1.213745,3.413666 2.199921,4.703278c0.986145,1.289597 2.124023,2.199905 3.489502,2.882629c1.365479,0.682739 2.88266,0.986176 4.627441,0.986176s3.110199,-0.22757 4.172241,-0.606873c1.062012,-0.455154 1.972321,-0.910309 2.65506,-1.365448c0.758606,-0.531036 1.365479,-0.986176 1.896484,-1.365479c0.531006,-0.455154 1.137878,-0.606873 1.820618,-0.606873c0.910309,0 1.517181,0.303436 1.972351,0.986176l3.110199,3.944672c-1.213715,1.365463 -2.503326,2.579208 -3.868805,3.489532c-1.365479,0.910309 -2.806793,1.668884 -4.323975,2.275757s-3.034363,0.986176 -4.627411,1.213745c-1.593048,0.227585 -3.186066,0.379303 -4.703247,0.379303c-2.730957,0 -5.386017,-0.531006 -7.813507,-1.517181s-4.551575,-2.503357 -6.448029,-4.551544c-1.820618,-1.972351 -3.261963,-4.399841 -4.323975,-7.282486c-1.062042,-2.882645 -1.593048,-6.144608 -1.593048,-9.785843c0,-3.261932 0.45517,-6.296295 1.441315,-9.103088c0.910339,-2.806793 2.351654,-5.234283 4.172272,-7.282486s4.096375,-3.641251 6.827332,-4.854996c2.730927,-1.137878 5.841156,-1.744751 9.330658,-1.744751c3.33783,0 6.296326,0.531006 8.799652,1.593048c2.503387,1.062012 4.779144,2.65506 6.751465,4.627411l-2.882629,3.792953z" id="svg_39"/>
    <path class="st0" d="m291.560547,30.502792c0,0.910309 -0.151733,1.820618 -0.531006,2.655075c-0.379303,0.83445 -0.910309,1.517181 -1.517181,2.124054c-0.606873,0.606873 -1.365479,1.062027 -2.199921,1.44133c-0.834473,0.379288 -1.744751,0.531006 -2.730927,0.531006c-0.910309,0 -1.820618,-0.151718 -2.65509,-0.531006c-0.834442,-0.379303 -1.517181,-0.834457 -2.124054,-1.44133c-0.606873,-0.606873 -1.062012,-1.289604 -1.441315,-2.124054c-0.379303,-0.834457 -0.531006,-1.6689 -0.531006,-2.655075c0,-0.986168 0.151703,-1.896477 0.531006,-2.730927c0.379303,-0.83445 0.834442,-1.593048 1.441315,-2.199921s1.365479,-1.062027 2.124054,-1.441322c0.834473,-0.379295 1.744781,-0.531013 2.65509,-0.531013c0.986176,0 1.896454,0.151718 2.730927,0.531013c0.834442,0.379295 1.593048,0.83445 2.199921,1.441322c0.606873,0.606873 1.137878,1.365471 1.517181,2.199921c0.303406,0.83445 0.531006,1.744759 0.531006,2.730927zm-1.517181,13.047775l0,44.756927l-10.84787,0l0,-44.756927l10.84787,0z" id="svg_40"/>
    <path class="st0" d="m320.842163,42.867844c3.33783,0 6.296326,0.531006 9.027283,1.593033c2.730896,1.062042 5.082581,2.579224 6.979065,4.551559c1.896484,1.972336 3.413635,4.399826 4.475708,7.206619c1.062012,2.88266 1.593018,6.068726 1.593018,9.558258c0,3.565384 -0.531006,6.751465 -1.593018,9.558258c-1.062073,2.882645 -2.503418,5.310135 -4.475708,7.282471c-1.896484,1.972351 -4.248169,3.565399 -6.979065,4.627411c-2.730957,1.062042 -5.76532,1.593048 -9.027283,1.593048c-3.337769,0 -6.372131,-0.531006 -9.103027,-1.593048c-2.730957,-1.062012 -5.082642,-2.579208 -6.979126,-4.627411c-1.896484,-1.972336 -3.413635,-4.399826 -4.475647,-7.282471c-1.062073,-2.88266 -1.593079,-6.068741 -1.593079,-9.558258c0,-3.489532 0.531006,-6.675598 1.593079,-9.558258c1.062012,-2.88266 2.579163,-5.234283 4.475647,-7.206619c1.896484,-1.972336 4.248169,-3.489517 6.979126,-4.551559c2.730896,-1.062027 5.765259,-1.593033 9.103027,-1.593033zm0,37.777863c3.717163,0 6.448059,-1.213745 8.268677,-3.717087c1.820618,-2.503357 2.65509,-6.144608 2.65509,-10.999588c0,-4.854996 -0.910339,-8.496231 -2.65509,-10.999588s-4.551514,-3.792953 -8.268677,-3.792953c-3.792908,0 -6.599731,1.289612 -8.420349,3.792953c-1.820618,2.579224 -2.730896,6.220459 -2.730896,10.999588c0,4.779129 0.910278,8.420364 2.730896,10.999588c1.896484,2.503342 4.627441,3.717087 8.420349,3.717087z" id="svg_41"/>
    <path class="st0" d="m361.275146,49.012436c0.910278,-0.910309 1.820557,-1.744766 2.882629,-2.503357c0.986145,-0.758591 2.048157,-1.44133 3.186096,-1.972336c1.137878,-0.531006 2.351624,-0.986176 3.56543,-1.289612c1.289551,-0.303436 2.655029,-0.455154 4.172241,-0.455154c2.42749,0 4.627319,0.379303 6.523804,1.21376c1.896484,0.834442 3.489624,1.972321 4.703308,3.489517c1.289612,1.517181 2.199951,3.261948 2.882629,5.386002c0.682739,2.048187 0.986206,4.399826 0.986206,6.903168l0,28.523071l-10.771973,0l0,-28.523071c0,-2.730927 -0.606934,-4.85498 -1.896484,-6.372162c-1.213806,-1.517181 -3.186157,-2.275772 -5.689453,-2.275772c-1.896484,0 -3.641235,0.455154 -5.234314,1.289612c-1.593079,0.834442 -3.186096,1.972336 -4.62738,3.413651l0,32.467743l-10.771973,0l0,-44.756927l6.599731,0c1.365479,0 2.275757,0.682739 2.730896,1.972351l0.758606,3.489517z" id="svg_42"/>
    <path class="st0" d="m408.687134,67.29451c0.151733,2.275772 0.606812,4.248108 1.213745,5.917007c0.606873,1.668915 1.517151,3.034363 2.503357,4.172256s2.275818,1.896469 3.717102,2.427505c1.441284,0.531006 3.034302,0.834442 4.779053,0.834442s3.262024,-0.227585 4.551575,-0.606873c1.289612,-0.379303 2.351685,-0.834457 3.33783,-1.365463c0.910278,-0.531021 1.744751,-0.910324 2.503357,-1.365463c0.682739,-0.379303 1.365417,-0.606873 2.048157,-0.606873c0.9104,0 1.593079,0.303436 1.972351,0.98616l3.110291,3.944687c-1.213806,1.365448 -2.503357,2.579193 -4.020569,3.489517c-1.517151,0.910309 -3.034363,1.6689 -4.62738,2.275772s-3.261963,0.986176 -4.930908,1.213745c-1.668884,0.22757 -3.261902,0.379303 -4.85498,0.379303c-3.110229,0 -5.992859,-0.531021 -8.647949,-1.517181c-2.655029,-1.062042 -5.006653,-2.579224 -6.979004,-4.551559c-1.972351,-2.048203 -3.56543,-4.551559 -4.703308,-7.510056c-1.137878,-2.958511 -1.668884,-6.448029 -1.668884,-10.3927c0,-3.034363 0.531006,-5.917023 1.517212,-8.647949c0.986145,-2.655075 2.42749,-5.006714 4.248047,-7.054916c1.820679,-1.972336 4.096436,-3.565369 6.751526,-4.703262c2.65509,-1.137894 5.689453,-1.744766 9.027222,-1.744766c2.806824,0 5.386047,0.455154 7.813477,1.365463c2.351624,0.910309 4.399841,2.199921 6.144592,3.944687c1.744751,1.744766 3.034424,3.86882 4.020569,6.372177c0.986145,2.503357 1.441345,5.385986 1.441345,8.647949c0,1.593033 -0.151733,2.730927 -0.531006,3.261932s-0.986206,0.834457 -1.972412,0.834457l-27.764404,0zm20.5578,-6.523895c0,-1.365463 -0.2276,-2.730942 -0.606873,-3.944687c-0.379272,-1.213745 -0.986145,-2.351624 -1.744751,-3.261932c-0.758545,-0.910309 -1.744751,-1.6689 -2.958496,-2.199921c-1.213745,-0.531006 -2.579224,-0.834442 -4.172241,-0.834442c-3.110229,0 -5.53772,0.910309 -7.358337,2.65506c-1.820618,1.744766 -2.958557,4.323975 -3.413635,7.510071l20.254333,0l0,0.075851z" id="svg_43"/>
    <path class="st0" d="m474.229492,52.274384c-0.303467,0.455154 -0.606934,0.758591 -0.910339,0.98616c-0.303406,0.151718 -0.758606,0.303452 -1.213745,0.303452c-0.531006,0 -1.062073,-0.151733 -1.668884,-0.45517c-0.606873,-0.303436 -1.289673,-0.606873 -2.048218,-0.986176c-0.758606,-0.379288 -1.668945,-0.682724 -2.65509,-0.98616c-0.986145,-0.303436 -2.19989,-0.455154 -3.565369,-0.455154c-2.124023,0 -3.792969,0.455154 -5.006714,1.365463c-1.213745,0.910309 -1.820618,2.048203 -1.820618,3.565384c0,0.986176 0.303406,1.744751 0.910339,2.42749c0.606812,0.682739 1.441284,1.213745 2.503296,1.744751c1.062073,0.531036 2.199951,0.910324 3.489563,1.365479c1.289612,0.379303 2.65509,0.834442 4.020569,1.289612c1.365417,0.455154 2.655029,0.98616 4.020508,1.593048c1.289612,0.606873 2.503296,1.365448 3.489502,2.275757c1.062012,0.910309 1.896484,2.048203 2.503418,3.261948c0.606812,1.289612 0.910278,2.806793 0.910278,4.627411c0,2.124069 -0.379272,4.172256 -1.137878,5.917023c-0.758606,1.820618 -1.896484,3.413651 -3.413635,4.703262c-1.517212,1.289612 -3.413696,2.351639 -5.613647,3.110229s-4.779114,1.137878 -7.661743,1.137878c-1.517212,0 -3.034363,-0.151703 -4.551514,-0.379288c-1.441406,-0.303436 -2.88269,-0.682724 -4.248169,-1.137894c-1.365479,-0.531006 -2.579224,-1.062012 -3.717041,-1.744751c-1.137939,-0.682739 -2.124146,-1.365479 -3.034424,-2.199921l2.503357,-4.096405c0.303406,-0.531006 0.682678,-0.834442 1.137878,-1.137878c0.455139,-0.22757 0.986206,-0.379303 1.668945,-0.379303c0.682678,0 1.289551,0.151733 1.896484,0.531021c0.606812,0.379288 1.289551,0.758591 2.048096,1.213745c0.758667,0.455154 1.744873,0.834457 2.806824,1.21376c1.062073,0.379288 2.427551,0.531006 4.020569,0.531006c1.289551,0 2.351624,-0.151718 3.261963,-0.45517c0.910278,-0.303421 1.668823,-0.682709 2.275757,-1.213745c0.606873,-0.531006 1.062012,-1.062012 1.289551,-1.744751c0.303467,-0.682739 0.379333,-1.365463 0.379333,-2.048187c0,-1.062042 -0.303406,-1.896484 -0.910278,-2.579224c-0.606873,-0.682739 -1.441345,-1.213745 -2.503357,-1.744751c-1.062012,-0.531021 -2.199951,-0.910324 -3.565369,-1.365479c-1.289612,-0.379303 -2.65509,-0.834442 -4.020569,-1.289597c-1.365479,-0.455154 -2.730957,-0.986176 -4.020508,-1.6689c-1.289673,-0.606873 -2.503418,-1.44133 -3.56543,-2.351639c-1.062012,-0.98616 -1.896484,-2.124054 -2.503357,-3.565384s-0.910339,-3.110229 -0.910339,-5.082565c0,-1.820618 0.379333,-3.565384 1.062073,-5.234283c0.758606,-1.6689 1.820618,-3.110229 3.186096,-4.323975c1.441284,-1.213745 3.186096,-2.199905 5.310181,-2.958511c2.124023,-0.758591 4.551514,-1.137878 7.282471,-1.137878c3.110229,0 5.916992,0.531006 8.420349,1.517181c2.503357,0.986176 4.62738,2.351639 6.296326,4.020538l-2.42749,4.020538z" id="svg_44"/>
    <path class="st0" d="m53.438599,124.568176c0,2.275772 -0.379303,4.399841 -1.137878,6.29631c-0.758606,1.896484 -1.820618,3.565384 -3.186096,4.930847c-1.365479,1.365479 -3.034363,2.42749 -5.006714,3.186096c-1.972321,0.758591 -4.096375,1.137878 -6.448029,1.137878l-11.909882,0l0,-31.253983l11.909882,0c2.351654,0 4.551544,0.379303 6.448029,1.137894c1.972351,0.758591 3.641235,1.820618 5.006714,3.186081c1.365479,1.365479 2.42749,3.034363 3.186096,4.930847c0.682739,2.048203 1.137878,4.172256 1.137878,6.448029zm-5.992859,0c0,-1.744766 -0.2276,-3.261948 -0.682739,-4.627396c-0.45517,-1.365479 -1.137909,-2.503357 -1.972351,-3.489532c-0.834442,-0.910309 -1.896484,-1.6689 -3.110229,-2.199905c-1.213745,-0.531036 -2.579193,-0.758606 -4.096375,-0.758606l-6.068756,0l0,21.999176l6.068756,0c1.517181,0 2.882629,-0.227585 4.096375,-0.758591c1.213745,-0.531036 2.275787,-1.21376 3.110229,-2.199936c0.834442,-0.910309 1.517181,-2.124054 1.972351,-3.489502c0.455139,-1.21376 0.682739,-2.806808 0.682739,-4.475708z" id="svg_45"/>
    <path class="st0" d="m63.603729,111.520401c0,0.455154 -0.075867,0.910309 -0.303436,1.289597c-0.151733,0.379303 -0.455139,0.758606 -0.758606,1.062042c-0.303406,0.303436 -0.682709,0.531006 -1.062012,0.758591c-0.455139,0.151718 -0.834473,0.303436 -1.365479,0.303436c-0.455139,0 -0.910309,-0.075867 -1.289612,-0.303436c-0.379272,-0.151718 -0.758575,-0.455154 -1.062012,-0.758591c-0.303436,-0.303436 -0.531006,-0.682739 -0.758606,-1.062042c-0.151703,-0.379288 -0.303406,-0.834442 -0.303406,-1.289597c0,-0.455154 0.075836,-0.910309 0.303406,-1.365463c0.151733,-0.455139 0.45517,-0.758591 0.758606,-1.062027c0.303436,-0.303452 0.682739,-0.531021 1.062012,-0.758591c0.379303,-0.151718 0.834473,-0.303436 1.289612,-0.303436c0.45517,0 0.910339,0.075867 1.365479,0.303436c0.455139,0.151718 0.758606,0.455139 1.062012,0.758591c0.303467,0.303436 0.531036,0.682724 0.758606,1.062027s0.303436,0.910309 0.303436,1.365463zm-0.758575,6.448029l0,22.150879l-5.386017,0l0,-22.150879l5.386017,0z" id="svg_46"/>
    <path class="st0" d="m73.313721,121.83725c0.682709,-1.289612 1.517151,-2.351639 2.42749,-3.110229c0.986145,-0.758606 2.048187,-1.137894 3.337799,-1.137894c0.986176,0 1.820618,0.227585 2.42749,0.682739l-0.379303,4.020538c-0.075867,0.22757 -0.151703,0.455154 -0.303436,0.531006s-0.303436,0.151718 -0.531006,0.151718c-0.22757,0 -0.531036,0 -0.986176,-0.075867c-0.455139,-0.075851 -0.834442,-0.075851 -1.213745,-0.075851c-0.606873,0 -1.137878,0.075851 -1.593048,0.227585c-0.455139,0.151718 -0.910309,0.455154 -1.213745,0.758591c-0.379303,0.303436 -0.682739,0.682724 -0.986176,1.213745c-0.303436,0.455154 -0.531006,0.986176 -0.758575,1.593048l0,13.654648l-5.31015,0l0,-22.150879l3.110229,0c0.531006,0 0.910309,0.075851 1.137878,0.303436c0.2276,0.22757 0.379303,0.531006 0.455139,1.062027l0.379333,2.351639z" id="svg_47"/>
    <path class="st0" d="m87.878662,129.726608c0.075867,1.137878 0.303436,2.124054 0.606873,2.958496c0.303436,0.834457 0.758606,1.517181 1.289612,2.048218c0.531006,0.531006 1.137878,0.910309 1.820618,1.21373c0.682739,0.303452 1.517181,0.379303 2.351624,0.379303s1.593048,-0.075851 2.275787,-0.303436c0.606873,-0.227585 1.137878,-0.455154 1.668884,-0.682739c0.45517,-0.22757 0.910309,-0.455154 1.213776,-0.682724c0.379272,-0.227585 0.682709,-0.303436 1.062012,-0.303436c0.45517,0 0.758606,0.151718 0.986176,0.531006l1.517181,1.972336c-0.606873,0.682739 -1.289612,1.289612 -1.972351,1.744766c-0.758575,0.455154 -1.517181,0.834457 -2.275757,1.137894c-0.834473,0.303436 -1.593048,0.455154 -2.42749,0.606873s-1.668915,0.151718 -2.42749,0.151718c-1.517212,0 -2.958527,-0.227585 -4.323975,-0.758591c-1.289612,-0.531021 -2.503357,-1.289612 -3.489532,-2.275787c-0.986176,-0.98616 -1.744781,-2.275772 -2.275787,-3.717087c-0.531006,-1.44133 -0.834442,-3.186081 -0.834442,-5.158432c0,-1.517181 0.22757,-2.958496 0.758575,-4.248108c0.45517,-1.365463 1.213745,-2.503357 2.124084,-3.489517c0.910278,-0.986176 2.048187,-1.744766 3.337799,-2.351639c1.289581,-0.606888 2.806793,-0.834442 4.475677,-0.834442c1.365479,0 2.65509,0.227554 3.868835,0.682724c1.213745,0.455154 2.19989,1.062027 3.034363,1.972336c0.834442,0.834442 1.517181,1.896484 1.972321,3.186081s0.758606,2.655075 0.758606,4.248108c0,0.834457 -0.075867,1.365479 -0.22757,1.668915c-0.151733,0.303436 -0.531036,0.455154 -0.986176,0.455154l-13.882233,0l0,-0.151718zm10.240997,-3.186081c0,-0.682739 -0.075867,-1.365479 -0.303436,-1.972351s-0.45517,-1.137878 -0.910339,-1.593033c-0.379272,-0.455154 -0.910278,-0.834457 -1.517151,-1.062042c-0.606903,-0.303421 -1.289612,-0.379288 -2.124084,-0.379288c-1.517181,0 -2.730927,0.455154 -3.641235,1.289597c-0.910309,0.910324 -1.441315,2.124069 -1.668884,3.717117l10.165131,0z" id="svg_48"/>
    <path class="st0" d="m122.773865,122.671707c-0.151703,0.22757 -0.303406,0.379288 -0.455139,0.455154c-0.151733,0.151718 -0.379303,0.151718 -0.682739,0.151718c-0.303436,0 -0.531006,-0.075867 -0.834442,-0.227585c-0.22757,-0.151718 -0.606873,-0.379288 -0.910309,-0.531006c-0.379303,-0.227585 -0.758606,-0.379303 -1.289612,-0.531021c-0.531006,-0.151718 -1.137878,-0.22757 -1.820618,-0.22757c-0.910309,0 -1.744751,0.151703 -2.42749,0.531006c-0.682739,0.303436 -1.289612,0.834457 -1.744751,1.44133s-0.834473,1.365463 -1.062042,2.275772c-0.22757,0.910309 -0.379303,1.896484 -0.379303,3.034378c0,1.21373 0.151733,2.199905 0.379303,3.186081c0.22757,0.910309 0.606873,1.6689 1.062042,2.351624c0.455139,0.606873 1.062012,1.137894 1.744751,1.44133c0.682739,0.303436 1.441345,0.455154 2.275757,0.455154c0.834473,0 1.517212,-0.075851 2.048218,-0.303436c0.531006,-0.227585 0.986145,-0.455154 1.365479,-0.682724c0.379272,-0.227585 0.682739,-0.45517 0.910278,-0.682739s0.531036,-0.303436 0.910339,-0.303436c0.455139,0 0.758575,0.151718 0.986145,0.531006l1.517181,1.972351c-0.606842,0.682724 -1.213715,1.289597 -1.896454,1.744751c-0.682739,0.455154 -1.441345,0.834457 -2.124084,1.137878c-0.758575,0.303452 -1.517151,0.45517 -2.275757,0.606888c-0.758606,0.151718 -1.593048,0.151718 -2.351624,0.151718c-1.365479,0 -2.65509,-0.22757 -3.868835,-0.758606c-1.213745,-0.531006 -2.275757,-1.289597 -3.186096,-2.275772c-0.910278,-0.98616 -1.593018,-2.199905 -2.124054,-3.565369c-0.531006,-1.44133 -0.758575,-3.034378 -0.758575,-4.854996c0,-1.593048 0.22757,-3.110229 0.682739,-4.551544c0.455139,-1.365463 1.137878,-2.579224 2.048187,-3.641235c0.910309,-0.986176 2.048187,-1.820618 3.337799,-2.351654c1.365479,-0.606857 2.882629,-0.834442 4.627411,-0.834442c1.668915,0 3.110229,0.303436 4.323975,0.834442c1.213745,0.531036 2.351654,1.289627 3.337799,2.275787l-1.365479,1.744766z" id="svg_49"/>
    <path class="st0" d="m143.255859,122.671707c-0.151733,0.22757 -0.303436,0.379288 -0.455139,0.455154c-0.151733,0.151718 -0.379333,0.151718 -0.682739,0.151718c-0.303467,0 -0.531006,-0.075867 -0.834473,-0.227585c-0.22757,-0.151718 -0.606873,-0.379288 -0.910278,-0.531006c-0.379333,-0.227585 -0.758606,-0.379303 -1.289612,-0.531021c-0.531006,-0.151718 -1.137878,-0.22757 -1.820618,-0.22757c-0.910339,0 -1.744751,0.151703 -2.42749,0.531006c-0.682739,0.303436 -1.289612,0.834457 -1.744781,1.44133s-0.834442,1.365463 -1.062042,2.275772c-0.22757,0.910309 -0.379272,1.896484 -0.379272,3.034378c0,1.21373 0.151703,2.199905 0.379272,3.186081c0.2276,0.910309 0.606873,1.6689 1.062042,2.351624c0.45517,0.606873 1.062042,1.137894 1.744781,1.44133c0.682739,0.303436 1.441315,0.455154 2.275757,0.455154c0.834473,0 1.517181,-0.075851 2.048187,-0.303436c0.531036,-0.227585 0.986176,-0.455154 1.365479,-0.682724c0.379303,-0.227585 0.682739,-0.45517 0.910309,-0.682739s0.531006,-0.303436 0.910309,-0.303436c0.45517,0 0.758575,0.151718 0.986176,0.531006l1.517151,1.972351c-0.606842,0.682724 -1.213715,1.289597 -1.896454,1.744751c-0.682739,0.455154 -1.441315,0.834457 -2.124054,1.137878c-0.758606,0.303452 -1.517181,0.45517 -2.275757,0.606888c-0.758606,0.151718 -1.593079,0.151718 -2.351654,0.151718c-1.365448,0 -2.65506,-0.22757 -3.868805,-0.758606c-1.213745,-0.531006 -2.275818,-1.289597 -3.186096,-2.275772c-0.910309,-0.98616 -1.593048,-2.199905 -2.124084,-3.565369c-0.531006,-1.44133 -0.758575,-3.034378 -0.758575,-4.854996c0,-1.593048 0.22757,-3.110229 0.682739,-4.551544c0.45517,-1.365463 1.137909,-2.579224 2.048187,-3.641235c0.910339,-0.986176 2.048218,-1.820618 3.33783,-2.351654c1.365448,-0.606857 2.882629,-0.834442 4.62738,-0.834442c1.668915,0 3.110229,0.303436 4.323975,0.834442c1.213745,0.531036 2.351654,1.289627 3.33783,2.275787l-1.365479,1.744766z" id="svg_50"/>
    <path class="st0" d="m154.483032,111.520401c0,0.455154 -0.075867,0.910309 -0.303436,1.289597c-0.151703,0.379303 -0.45517,0.758606 -0.758575,1.062042c-0.303467,0.303436 -0.68277,0.531006 -1.062073,0.758591c-0.455139,0.151718 -0.834412,0.303436 -1.365448,0.303436c-0.45517,0 -0.910309,-0.075867 -1.289612,-0.303436c-0.379303,-0.151718 -0.758575,-0.455154 -1.062042,-0.758591c-0.303406,-0.303436 -0.531006,-0.682739 -0.758575,-1.062042c-0.151703,-0.379288 -0.303436,-0.834442 -0.303436,-1.289597c0,-0.455154 0.075867,-0.910309 0.303436,-1.365463c0.151703,-0.455139 0.45517,-0.758591 0.758575,-1.062027c0.303467,-0.303452 0.682739,-0.531021 1.062042,-0.758591c0.379303,-0.151718 0.834442,-0.303436 1.289612,-0.303436c0.45517,0 0.910309,0.075867 1.365448,0.303436c0.45517,0.151718 0.758606,0.455139 1.062073,0.758591c0.303406,0.303436 0.531006,0.682724 0.758575,1.062027s0.303436,0.910309 0.303436,1.365463zm-0.758606,6.448029l0,22.150879l-5.385986,0l0,-22.150879l5.385986,0z" id="svg_51"/>
    <path class="st0" d="m168.972107,117.664993c1.668915,0 3.110229,0.303421 4.475708,0.834457c1.365479,0.531006 2.503357,1.289597 3.489532,2.275772c0.986176,0.98616 1.668915,2.199905 2.199921,3.565384c0.531006,1.441315 0.758575,2.958496 0.758575,4.703262c0,1.744766 -0.22757,3.337799 -0.758575,4.779129c-0.531006,1.441315 -1.289612,2.579208 -2.199921,3.641235c-0.986176,0.98616 -2.124054,1.744751 -3.489532,2.275787c-1.365479,0.531006 -2.806793,0.834442 -4.475708,0.834442c-1.668884,0 -3.186066,-0.303436 -4.551514,-0.834442c-1.365479,-0.531036 -2.503357,-1.289627 -3.489563,-2.275787c-0.986145,-0.98616 -1.668884,-2.199921 -2.19989,-3.641235c-0.531006,-1.44133 -0.758606,-3.034363 -0.758606,-4.779129c0,-1.744766 0.2276,-3.337799 0.758606,-4.703262c0.531006,-1.441345 1.289612,-2.579224 2.19989,-3.565384c0.986206,-0.986176 2.124084,-1.744766 3.489563,-2.275772c1.365448,-0.606888 2.882629,-0.834457 4.551514,-0.834457zm0,18.737213c1.820618,0 3.186096,-0.606873 4.096436,-1.896484c0.910278,-1.213745 1.365448,-3.034363 1.365448,-5.461853c0,-2.42749 -0.45517,-4.248123 -1.365448,-5.461868c-0.910339,-1.289597 -2.275818,-1.896469 -4.096436,-1.896469c-1.896454,0 -3.261932,0.606873 -4.172241,1.896469c-0.910278,1.289612 -1.365479,3.110229 -1.365479,5.461868c0,2.351639 0.4552,4.172256 1.365479,5.461853c0.910309,1.289612 2.275787,1.896484 4.172241,1.896484zm7.510071,-27.840317l-5.31012,5.613571c-0.303467,0.303452 -0.531036,0.455154 -0.758606,0.606888c-0.2276,0.075851 -0.606873,0.151703 -0.986176,0.151703l-3.186066,0l3.034363,-5.234283c0.22757,-0.379288 0.455139,-0.682724 0.758575,-0.834442s0.758575,-0.303436 1.289612,-0.303436l5.158417,0z" id="svg_52"/>
    <path class="st0" d="m188.998962,120.699356c0.455139,-0.455154 0.910309,-0.834457 1.441315,-1.213745c0.531036,-0.379303 0.986176,-0.682739 1.593048,-0.98616s1.137878,-0.45517 1.820618,-0.606888c0.606873,-0.151703 1.289612,-0.22757 2.048218,-0.22757c1.213745,0 2.275757,0.22757 3.186066,0.606873c0.910309,0.379288 1.744781,0.986176 2.351654,1.744766s1.137878,1.593033 1.441284,2.655075c0.303467,1.062012 0.45517,2.199905 0.45517,3.413651l0,14.109802l-5.31015,0l0,-14.109802c0,-1.365463 -0.303406,-2.427505 -0.910278,-3.110229c-0.606873,-0.758591 -1.593048,-1.137878 -2.806824,-1.137878c-0.910278,0 -1.820618,0.22757 -2.579193,0.606873c-0.834442,0.455139 -1.593048,0.986176 -2.275787,1.744766l0,16.006271l-5.31012,0l0,-22.150879l3.261932,0c0.682709,0 1.137878,0.303436 1.365479,0.986176l0.22757,1.6689z" id="svg_53"/>
    <path class="st0" d="m238.231567,108.030884l0,32.164276l-3.261932,0c-0.682739,0 -1.137909,-0.303436 -1.365479,-0.986176l-0.455139,-2.124039c-0.910339,0.98616 -1.896484,1.820618 -3.11026,2.503342c-1.137878,0.606873 -2.503357,0.986176 -4.020508,0.986176c-1.213745,0 -2.351624,-0.227585 -3.33783,-0.758591c-0.986145,-0.531021 -1.896484,-1.213745 -2.579193,-2.199921c-0.758575,-0.98616 -1.289642,-2.124054 -1.668915,-3.565369c-0.379303,-1.441345 -0.606873,-3.034378 -0.606873,-4.854996c0,-1.6689 0.22757,-3.186081 0.682739,-4.551559c0.455139,-1.441315 1.062012,-2.655075 1.896484,-3.641235c0.834442,-1.062027 1.820618,-1.820618 3.034363,-2.42749s2.503357,-0.910309 3.944702,-0.910309c1.213745,0 2.275757,0.22757 3.186035,0.606873c0.910339,0.379288 1.668915,0.910309 2.351654,1.593033l0,-11.834015l5.31015,0zm-5.31015,15.626968c-0.606873,-0.758591 -1.289581,-1.289597 -1.972321,-1.593033c-0.682739,-0.303436 -1.517212,-0.455154 -2.275818,-0.455154c-0.834412,0 -1.517151,0.151718 -2.19989,0.455154c-0.682739,0.303436 -1.213745,0.758591 -1.668884,1.365479c-0.45517,0.606857 -0.834473,1.365448 -1.062073,2.351624c-0.227539,0.910309 -0.379272,2.048187 -0.379272,3.337814c0,1.289597 0.075867,2.42749 0.303467,3.261932s0.531006,1.668915 0.910278,2.199921c0.379303,0.606873 0.834473,0.986176 1.441345,1.213745c0.531006,0.22757 1.213745,0.379288 1.896454,0.379288c1.137909,0 2.048218,-0.22757 2.806793,-0.682724c0.758606,-0.455154 1.517181,-1.137894 2.199921,-1.972351l0,-9.861694z" id="svg_54"/>
    <path class="st0" d="m247.638092,129.726608c0.075867,1.137878 0.303436,2.124054 0.606873,2.958496c0.303436,0.834457 0.758575,1.517181 1.289612,2.048218c0.531006,0.531006 1.137878,0.910309 1.820618,1.21373c0.682709,0.303452 1.517181,0.379303 2.351624,0.379303s1.593048,-0.075851 2.275787,-0.303436c0.606873,-0.227585 1.137878,-0.455154 1.668915,-0.682739c0.455139,-0.22757 0.910278,-0.455154 1.213715,-0.682724c0.379303,-0.227585 0.68277,-0.303436 1.062042,-0.303436c0.455139,0 0.758606,0.151718 0.986176,0.531006l1.517181,1.972336c-0.606873,0.682739 -1.289612,1.289612 -1.972351,1.744766c-0.758575,0.455154 -1.517181,0.834457 -2.275757,1.137894c-0.834473,0.303436 -1.593048,0.455154 -2.42749,0.606873s-1.668915,0.151718 -2.42749,0.151718c-1.517212,0 -2.958527,-0.227585 -4.324005,-0.758591c-1.289581,-0.531021 -2.503326,-1.289612 -3.489502,-2.275787c-0.986176,-0.98616 -1.744781,-2.275772 -2.275757,-3.717087c-0.531036,-1.44133 -0.834473,-3.186081 -0.834473,-5.158432c0,-1.517181 0.22757,-2.958496 0.758606,-4.248108c0.455139,-1.365463 1.213745,-2.503357 2.124054,-3.489517c0.910309,-0.986176 2.048187,-1.744766 3.337799,-2.351639c1.289612,-0.606888 2.806793,-0.834442 4.475708,-0.834442c1.365448,0 2.65506,0.227554 3.868774,0.682724c1.213776,0.455154 2.199951,1.062027 3.034393,1.972336c0.834442,0.834442 1.517181,1.896484 1.972321,3.186081s0.758606,2.655075 0.758606,4.248108c0,0.834457 -0.075867,1.365479 -0.22757,1.668915c-0.151733,0.303436 -0.531036,0.455154 -0.986176,0.455154l-13.882233,0l0,-0.151718zm10.165131,-3.186081c0,-0.682739 -0.075867,-1.365479 -0.303436,-1.972351s-0.45517,-1.137878 -0.910309,-1.593033c-0.379303,-0.455154 -0.910309,-0.834457 -1.517181,-1.062042c-0.606873,-0.303421 -1.289612,-0.379288 -2.124054,-0.379288c-1.517181,0 -2.730927,0.455154 -3.641235,1.289597c-0.910309,0.910324 -1.441345,2.124069 -1.668915,3.717117l10.165131,0z" id="svg_55"/>
    <path class="st0" d="m283.898773,113.568604l0,9.254807l11.682281,0l0,4.627426l-11.682281,0l0,12.744339l-5.841156,0l0,-31.253983l19.723389,0l0,4.627411l-13.882233,0z" id="svg_56"/>
    <path class="st0" d="m307.870239,111.520401c0,0.455154 -0.075806,0.910309 -0.303406,1.289597c-0.151672,0.379303 -0.455139,0.758606 -0.758606,1.062042c-0.303467,0.303436 -0.682739,0.531006 -1.062012,0.758591c-0.455139,0.151718 -0.834473,0.303436 -1.365479,0.303436c-0.455139,0 -0.910278,-0.075867 -1.289612,-0.303436c-0.379333,-0.151718 -0.758606,-0.455154 -1.062012,-0.758591c-0.303406,-0.303436 -0.531006,-0.682739 -0.758606,-1.062042c-0.151733,-0.379288 -0.303467,-0.834442 -0.303467,-1.289597c0,-0.455154 0.075928,-0.910309 0.303467,-1.365463c0.151733,-0.455139 0.4552,-0.758591 0.758606,-1.062027c0.303406,-0.303452 0.682678,-0.531021 1.062012,-0.758591c0.379333,-0.151718 0.834473,-0.303436 1.289612,-0.303436c0.4552,0 0.910339,0.075867 1.365479,0.303436c0.455139,0.151718 0.758545,0.455139 1.062012,0.758591c0.303467,0.303436 0.531006,0.682724 0.758606,1.062027s0.303406,0.910309 0.303406,1.365463zm-0.682678,6.448029l0,22.150879l-5.386047,0l0,-22.150879l5.386047,0z" id="svg_57"/>
    <path class="st0" d="m318.0354,108.030884l0,32.164276l-5.310181,0l0,-32.164276l5.310181,0z" id="svg_58"/>
    <path class="st0" d="m322.814575,121.078659c2.579163,-2.351639 5.613525,-3.489532 9.178955,-3.489532c1.289551,0 2.42749,0.227585 3.489502,0.606873c0.986206,0.455154 1.896484,0.986176 2.579224,1.744766c0.682739,0.758591 1.213745,1.6689 1.593018,2.730942c0.379272,1.062012 0.531006,2.199905 0.531006,3.489502l0,14.033951l-2.42749,0c-0.531006,0 -0.910278,-0.075851 -1.137878,-0.22757c-0.303406,-0.151718 -0.455139,-0.455154 -0.682678,-0.910309l-0.4552,-1.593048c-0.531006,0.531021 -1.137878,0.910309 -1.668945,1.365463c-0.531006,0.379288 -1.062012,0.682739 -1.668823,0.986176s-1.213745,0.455154 -1.820679,0.606873c-0.682739,0.151718 -1.365479,0.227585 -2.19989,0.227585c-0.910339,0 -1.820618,-0.151718 -2.579224,-0.379303s-1.441345,-0.606873 -2.048157,-1.137894s-0.986206,-1.137878 -1.365479,-1.896469c-0.303467,-0.758591 -0.4552,-1.593048 -0.4552,-2.579224c0,-0.531006 0.075928,-1.137894 0.303467,-1.6689s0.531006,-1.062027 0.910278,-1.593033c0.4552,-0.531021 0.986206,-0.986176 1.668945,-1.44133c0.682739,-0.455154 1.517212,-0.834442 2.503296,-1.137894c0.986206,-0.303436 2.124084,-0.606873 3.413696,-0.834442c1.289612,-0.227585 2.806763,-0.303436 4.475708,-0.379303l0,-1.289612c0,-1.517181 -0.303467,-2.579208 -0.986206,-3.261932s-1.517151,-1.062042 -2.730896,-1.062042c-0.834473,0 -1.593079,0.075867 -2.124084,0.303452c-0.606873,0.22757 -1.062012,0.455154 -1.517151,0.682724c-0.455139,0.227585 -0.834473,0.45517 -1.213745,0.682724s-0.758606,0.303452 -1.213806,0.303452c-0.379272,0 -0.682678,-0.075867 -0.986084,-0.303452c-0.227661,-0.227554 -0.4552,-0.455139 -0.606934,-0.682724l-0.758545,-1.896469zm12.289185,9.634109c-1.517212,0.075867 -2.806824,0.22757 -3.868835,0.379288c-1.062073,0.227585 -1.896484,0.45517 -2.503357,0.758591c-0.606873,0.303452 -1.062012,0.682739 -1.365479,1.062042c-0.303467,0.379288 -0.379272,0.834442 -0.379272,1.289597c0,0.910309 0.303406,1.593048 0.834473,2.048203c0.531006,0.379303 1.289551,0.606873 2.19989,0.606873c1.062012,0 2.048157,-0.22757 2.806824,-0.606873s1.593018,-0.986176 2.351563,-1.820618l0,-3.717102l-0.075806,0z" id="svg_59"/>
    <path class="st0" d="m350.275513,120.699356c0.4552,-0.455154 0.9104,-0.834457 1.441345,-1.213745c0.531067,-0.379303 0.986206,-0.682739 1.593079,-0.98616s1.137878,-0.45517 1.820557,-0.606888c0.606934,-0.151703 1.289673,-0.22757 2.048218,-0.22757c1.213745,0 2.275818,0.22757 3.186096,0.606873c0.910339,0.379288 1.744812,0.986176 2.351624,1.744766s1.137939,1.593033 1.441345,2.655075c0.303406,1.062012 0.455139,2.199905 0.455139,3.413651l0,14.109802l-5.31012,0l0,-14.109802c0,-1.365463 -0.303406,-2.427505 -0.910339,-3.110229c-0.606812,-0.758591 -1.593018,-1.137878 -2.806763,-1.137878c-0.910278,0 -1.820618,0.22757 -2.579224,0.606873c-0.834473,0.455139 -1.593018,0.986176 -2.275757,1.744766l0,16.006271l-5.310181,0l0,-22.150879l3.261963,0c0.682739,0 1.137939,0.303436 1.365479,0.986176l0.227539,1.6689z" id="svg_60"/>
    <path class="st0" d="m376.750427,140.498611c-1.896484,0 -3.413635,-0.531021 -4.475647,-1.6689s-1.517212,-2.579208 -1.517212,-4.475693l0,-12.365051l-2.275757,0c-0.303467,0 -0.531067,-0.075867 -0.758667,-0.303436c-0.227539,-0.151718 -0.303406,-0.455154 -0.303406,-0.834442l0,-2.124069l3.565369,-0.606873l1.137939,-6.068726c0.075806,-0.303436 0.227539,-0.531021 0.379272,-0.682739c0.227539,-0.151703 0.455139,-0.22757 0.758545,-0.22757l2.730957,0l0,6.979034l5.916992,0l0,3.792953l-5.916992,0l0,11.985764c0,0.682724 0.151733,1.213745 0.531006,1.593048c0.303467,0.379288 0.834473,0.606857 1.365479,0.606857c0.303467,0 0.606873,-0.075851 0.834473,-0.151718c0.227539,-0.075851 0.455139,-0.151718 0.606873,-0.22757c0.151672,-0.075851 0.303406,-0.151718 0.455139,-0.22757s0.227539,-0.151733 0.379272,-0.151733c0.151733,0 0.303467,0.075867 0.379333,0.151733s0.227539,0.22757 0.303406,0.379288l1.593018,2.579208c-0.758545,0.682724 -1.668884,1.137894 -2.655029,1.441315c-0.910278,0.45517 -1.896484,0.606888 -3.034363,0.606888z" id="svg_61"/>
    <path class="st0" d="m390.480957,121.83725c0.682739,-1.289612 1.517151,-2.351639 2.42749,-3.110229c0.986145,-0.758606 2.048218,-1.137894 3.337769,-1.137894c0.986206,0 1.820618,0.227585 2.42749,0.682739l-0.379272,4.020538c-0.075867,0.22757 -0.151733,0.455154 -0.303467,0.531006s-0.303467,0.151718 -0.531006,0.151718c-0.227539,0 -0.531006,0 -0.986145,-0.075867c-0.4552,-0.075851 -0.834473,-0.075851 -1.213806,-0.075851c-0.606812,0 -1.137878,0.075851 -1.593018,0.227585c-0.4552,0.151718 -0.910278,0.455154 -1.213745,0.758591c-0.379272,0.303436 -0.682739,0.682724 -0.986206,1.213745c-0.303345,0.455154 -0.531006,0.986176 -0.758545,1.593048l0,13.654648l-5.310181,0l0,-22.150879l3.110291,0c0.530945,0 0.910217,0.075851 1.137878,0.303436c0.227539,0.22757 0.379272,0.531006 0.455139,1.062027l0.379333,2.351639z" id="svg_62"/>
    <path class="st0" d="m410.811157,117.664993c1.668945,0 3.110229,0.303421 4.475708,0.834457c1.365479,0.531006 2.503357,1.289597 3.489502,2.275772c0.986206,0.98616 1.668945,2.199905 2.199951,3.565384c0.531006,1.441315 0.758545,2.958496 0.758545,4.703262c0,1.744766 -0.227539,3.337799 -0.758545,4.779129c-0.531006,1.441315 -1.289612,2.579208 -2.199951,3.641235c-0.986145,0.98616 -2.124023,1.744751 -3.489502,2.275787c-1.365479,0.531006 -2.806763,0.834442 -4.475708,0.834442c-1.668945,0 -3.186096,-0.303436 -4.551514,-0.834442c-1.365479,-0.531036 -2.503418,-1.289627 -3.489502,-2.275787c-0.986206,-0.98616 -1.668945,-2.199921 -2.199951,-3.641235c-0.531006,-1.44133 -0.758606,-3.034363 -0.758606,-4.779129c0,-1.744766 0.2276,-3.337799 0.758606,-4.703262c0.531006,-1.441345 1.289612,-2.579224 2.199951,-3.565384c0.986084,-0.986176 2.124023,-1.744766 3.489502,-2.275772c1.365417,-0.606888 2.882568,-0.834457 4.551514,-0.834457zm0,18.737213c1.820679,0 3.186096,-0.606873 4.096436,-1.896484c0.910278,-1.213745 1.365479,-3.034363 1.365479,-5.461853c0,-2.42749 -0.4552,-4.248123 -1.365479,-5.461868c-0.910339,-1.289597 -2.275757,-1.896469 -4.096436,-1.896469c-1.896484,0 -3.261963,0.606873 -4.172241,1.896469c-0.910339,1.289612 -1.365479,3.110229 -1.365479,5.461868c0,2.351639 0.455139,4.172256 1.365479,5.461853c0.910278,1.289612 2.275757,1.896484 4.172241,1.896484z" id="svg_63"/>
    <path class="st0" d="m430.838013,121.002808c0.910278,-0.986176 1.97229,-1.820618 3.110229,-2.503357c1.137817,-0.606888 2.503357,-0.986176 4.096375,-0.986176c1.213745,0 2.351624,0.227585 3.33783,0.758591s1.896484,1.213745 2.579224,2.199921c0.758545,0.986176 1.289551,2.124054 1.668884,3.565384c0.379272,1.441315 0.606873,3.034363 0.606873,4.85498c0,1.668915 -0.2276,3.186096 -0.682739,4.627411c-0.4552,1.441315 -1.062012,2.655075 -1.896484,3.641251c-0.834473,1.062012 -1.820618,1.820618 -3.034302,2.42749s-2.503418,0.910309 -3.944702,0.910309c-1.213806,0 -2.275818,-0.227585 -3.186157,-0.606888c-0.910278,-0.379288 -1.668884,-0.910294 -2.351563,-1.593033l0,9.103104l-5.310181,0l0,-29.433365l3.261963,0c0.682739,0 1.137878,0.303436 1.365479,0.986176l0.379272,2.048203zm0.303467,13.427063c0.606812,0.758591 1.289551,1.289612 1.97229,1.593048c0.682739,0.303436 1.517212,0.455154 2.351624,0.455154c0.834473,0 1.517151,-0.151718 2.199951,-0.455154c0.682739,-0.303436 1.213684,-0.758591 1.668884,-1.365463c0.455139,-0.606873 0.834473,-1.365479 1.062012,-2.351639c0.227661,-0.910309 0.379272,-2.048203 0.379272,-3.337799c0,-1.289612 -0.075806,-2.42749 -0.303345,-3.261948s-0.531067,-1.6689 -0.9104,-2.199921c-0.379272,-0.531006 -0.834351,-0.98616 -1.441284,-1.213745s-1.213745,-0.379303 -1.896484,-0.379303c-1.137939,0 -2.048157,0.227585 -2.806763,0.682739c-0.758606,0.455154 -1.517212,1.137894 -2.199951,1.972336l0,9.861694l-0.075806,0z" id="svg_64"/>
    <path class="st0" d="m460.878235,108.56189l-5.31012,5.613571c-0.303467,0.303452 -0.531067,0.455154 -0.758667,0.606888c-0.227539,0.075851 -0.606812,0.151703 -0.986084,0.151703l-3.186157,0l3.034424,-5.234283c0.227539,-0.379288 0.455078,-0.682724 0.758545,-0.834442c0.303467,-0.22757 0.682739,-0.303436 1.289673,-0.303436l5.158386,0zm-5.006714,9.406525l0,22.150894l-5.31012,0l0,-22.150894l5.31012,0z" id="svg_65"/>
    <path class="st0" d="m460.878235,121.078659c2.579224,-2.351639 5.613586,-3.489532 9.178894,-3.489532c1.289673,0 2.427551,0.227585 3.489624,0.606873c0.986084,0.455154 1.896484,0.986176 2.579102,1.744766c0.6828,0.758591 1.213806,1.6689 1.59314,2.730942c0.379272,1.062012 0.531006,2.199905 0.531006,3.489502l0,14.033951l-2.42749,0c-0.531006,0 -0.910339,-0.075851 -1.137939,-0.22757c-0.303467,-0.151718 -0.455139,-0.455154 -0.682739,-0.910309l-0.455078,-1.593048c-0.531067,0.531021 -1.137939,0.910309 -1.668945,1.365463c-0.531006,0.379288 -1.062012,0.682739 -1.668945,0.986176s-1.213745,0.455154 -1.820557,0.606873c-0.682739,0.151718 -1.365479,0.227585 -2.199951,0.227585c-0.910278,0 -1.820618,-0.151718 -2.579224,-0.379303s-1.441284,-0.606873 -2.048157,-1.137894s-0.986206,-1.137878 -1.36554,-1.896469c-0.303345,-0.758591 -0.455078,-1.593048 -0.455078,-2.579224c0,-0.531006 0.075806,-1.137894 0.303467,-1.6689s0.530945,-1.062027 0.910278,-1.593033c0.455139,-0.531021 0.986206,-0.986176 1.668884,-1.44133c0.682739,-0.455154 1.517151,-0.834442 2.503357,-1.137894c0.986206,-0.303436 2.124023,-0.606873 3.413635,-0.834442c1.289612,-0.227585 2.806824,-0.303436 4.475708,-0.379303l0,-1.289612c0,-1.517181 -0.303406,-2.579208 -0.986145,-3.261932s-1.517212,-1.062042 -2.730957,-1.062042c-0.834473,0 -1.593018,0.075867 -2.124023,0.303452c-0.606934,0.22757 -1.062012,0.455154 -1.517212,0.682724c-0.455139,0.227585 -0.834473,0.45517 -1.213745,0.682724s-0.758545,0.303452 -1.213745,0.303452c-0.379272,0 -0.682739,-0.075867 -0.986206,-0.303452c-0.227539,-0.227554 -0.455078,-0.455139 -0.606812,-0.682724l-0.758606,-1.896469zm12.213318,9.634109c-1.517212,0.075867 -2.806763,0.22757 -3.868835,0.379288c-1.062073,0.227585 -1.896423,0.45517 -2.503357,0.758591c-0.606812,0.303452 -1.062012,0.682739 -1.365417,1.062042c-0.303467,0.379288 -0.379333,0.834442 -0.379333,1.289597c0,0.910309 0.303467,1.593048 0.834473,2.048203c0.531006,0.379303 1.289612,0.606873 2.199951,0.606873c1.062012,0 2.048096,-0.22757 2.806763,-0.606873s1.593018,-0.986176 2.351624,-1.820618l0,-3.717102l-0.075867,0z" id="svg_66"/>
   </g>
  </g>
 </g>
</svg>