<svg id="Layer_1" data-name="Layer 1" xmlns="http://www.w3.org/2000/svg" viewBox="0 0 596.6 239"><defs><style>.cls-1{fill:#fff;}</style></defs><title>Donaciones</title><path class="cls-1" d="M78.4,49.4a45.63,45.63,0,0,1-3,16.8,38.21,38.21,0,0,1-8.6,13.2A39.14,39.14,0,0,1,53.5,88a47.42,47.42,0,0,1-17.2,3H4.6V7.8H36.3a45,45,0,0,1,17.2,3.1,39.14,39.14,0,0,1,13.3,8.6,39.26,39.26,0,0,1,8.6,13.1A47.79,47.79,0,0,1,78.4,49.4Zm-15.9,0a38.82,38.82,0,0,0-1.8-12.3,26.6,26.6,0,0,0-5.2-9.2,23.45,23.45,0,0,0-8.3-5.8,29.15,29.15,0,0,0-11-2H20V78.6H36.2a29.53,29.53,0,0,0,11-2,23.08,23.08,0,0,0,8.3-5.8,25.1,25.1,0,0,0,5.2-9.2A38.18,38.18,0,0,0,62.5,49.4Z"/><path class="cls-1" d="M115.1,31.1A32.32,32.32,0,0,1,127,33.2a25.33,25.33,0,0,1,9.2,6,27.79,27.79,0,0,1,5.9,9.5,36.21,36.21,0,0,1,2.1,12.6,35.42,35.42,0,0,1-2.1,12.6,25.93,25.93,0,0,1-5.9,9.6,25.55,25.55,0,0,1-9.2,6.1,35.05,35.05,0,0,1-23.9,0,24.33,24.33,0,0,1-9.2-6.1A27.31,27.31,0,0,1,88,73.9a36.21,36.21,0,0,1-2.1-12.6A36.21,36.21,0,0,1,88,48.7a26.87,26.87,0,0,1,5.9-9.5,25.33,25.33,0,0,1,9.2-6A32.86,32.86,0,0,1,115.1,31.1Zm0,49.8c4.9,0,8.5-1.6,10.9-4.9s3.5-8.1,3.5-14.5S128.3,50.3,126,47s-6-5-10.9-5-8.7,1.7-11.1,5-3.6,8.2-3.6,14.5S101.6,72.6,104,76,110.1,80.9,115.1,80.9Z"/><path class="cls-1" d="M168.3,39.2a30,30,0,0,1,3.8-3.3,22.64,22.64,0,0,1,4.2-2.6,26.4,26.4,0,0,1,4.7-1.7,23.77,23.77,0,0,1,5.5-.6,21.28,21.28,0,0,1,8.6,1.6,16,16,0,0,1,6.2,4.6,20.15,20.15,0,0,1,3.8,7.1,29,29,0,0,1,1.3,9.1V91H192.2V53.4c0-3.6-.8-6.4-2.5-8.4s-4.2-3-7.5-3a14.68,14.68,0,0,0-6.9,1.7,25.24,25.24,0,0,0-6.1,4.5V91H155V32h8.7a3.55,3.55,0,0,1,3.6,2.6Z"/><path class="cls-1" d="M218.5,40.2A35.15,35.15,0,0,1,243,30.9a24.85,24.85,0,0,1,9.3,1.7,19.68,19.68,0,0,1,6.9,4.7,20,20,0,0,1,4.3,7.2,27.31,27.31,0,0,1,1.5,9.2V91h-6.4a6.56,6.56,0,0,1-3.1-.6,4.15,4.15,0,0,1-1.7-2.4l-1.3-4.3c-1.5,1.3-3,2.5-4.4,3.5a28.22,28.22,0,0,1-4.4,2.6,25.56,25.56,0,0,1-4.9,1.6,26.12,26.12,0,0,1-5.8.5,21.72,21.72,0,0,1-6.9-1,17.21,17.21,0,0,1-5.5-3,14.28,14.28,0,0,1-3.6-5,18.59,18.59,0,0,1-1.3-7,14.08,14.08,0,0,1,.7-4.5,12.69,12.69,0,0,1,2.4-4.2,21.15,21.15,0,0,1,4.4-3.8,29,29,0,0,1,6.6-3.1,59.38,59.38,0,0,1,9.2-2.2,83,83,0,0,1,12-1V53.7c0-3.9-.8-6.9-2.5-8.8s-4.1-2.8-7.3-2.8a18.17,18.17,0,0,0-5.7.8,21,21,0,0,0-4,1.8c-1.1.7-2.2,1.3-3.1,1.8a6.5,6.5,0,0,1-3.1.8,4.15,4.15,0,0,1-2.5-.8,7.28,7.28,0,0,1-1.7-1.8Zm32.6,25.6a64.94,64.94,0,0,0-10.3,1.1,26.89,26.89,0,0,0-6.7,2,8.23,8.23,0,0,0-3.6,2.8,6.3,6.3,0,0,0-1.1,3.5c0,2.5.7,4.3,2.2,5.3a9.48,9.48,0,0,0,5.8,1.6,16.67,16.67,0,0,0,7.6-1.6,24.15,24.15,0,0,0,6.2-4.8V65.8Z"/><path class="cls-1" d="M320.5,44.5a7.69,7.69,0,0,1-1.2,1.3,3,3,0,0,1-1.8.5,3.52,3.52,0,0,1-2.1-.7c-.7-.4-1.5-.9-2.5-1.5a15.17,15.17,0,0,0-3.4-1.5,17,17,0,0,0-4.9-.7,15.26,15.26,0,0,0-6.6,1.4,12.63,12.63,0,0,0-4.7,3.9,18.06,18.06,0,0,0-2.8,6.1,33.46,33.46,0,0,0-.9,8.1,31.22,31.22,0,0,0,1,8.4,17.81,17.81,0,0,0,2.9,6.2,12.86,12.86,0,0,0,4.6,3.8,13.34,13.34,0,0,0,6.1,1.3,16.41,16.41,0,0,0,5.5-.8,22.46,22.46,0,0,0,3.5-1.8c1-.7,1.8-1.3,2.5-1.8a3.49,3.49,0,0,1,2.4-.8,2.82,2.82,0,0,1,2.6,1.3l4.1,5.2a27.22,27.22,0,0,1-5.1,4.6,31,31,0,0,1-5.7,3,26.14,26.14,0,0,1-6.1,1.6,44.36,44.36,0,0,1-6.2.5,27.39,27.39,0,0,1-10.3-2,23.6,23.6,0,0,1-8.5-6,28.46,28.46,0,0,1-5.7-9.6,37.13,37.13,0,0,1-2.1-12.9,36,36,0,0,1,1.9-12,26.8,26.8,0,0,1,5.5-9.6,25.82,25.82,0,0,1,9-6.4,31.73,31.73,0,0,1,12.3-2.3,29.65,29.65,0,0,1,11.6,2.1,28.27,28.27,0,0,1,8.9,6.1Z"/><path class="cls-1" d="M350.4,14.8a8.42,8.42,0,0,1-.7,3.5,9.51,9.51,0,0,1-2,2.8,9.72,9.72,0,0,1-2.9,1.9,8.57,8.57,0,0,1-3.6.7,8.42,8.42,0,0,1-3.5-.7,9,9,0,0,1-4.7-4.7,8.12,8.12,0,0,1-.7-3.5,8.57,8.57,0,0,1,.7-3.6,9.72,9.72,0,0,1,1.9-2.9,10.65,10.65,0,0,1,2.8-1.9,8.42,8.42,0,0,1,3.5-.7,8.57,8.57,0,0,1,3.6.7,9.72,9.72,0,0,1,2.9,1.9,10,10,0,0,1,2,2.9A10.48,10.48,0,0,1,350.4,14.8Zm-2,17.2V91H334.1V32Z"/><path class="cls-1" d="M389,31.1a32.32,32.32,0,0,1,11.9,2.1,25.33,25.33,0,0,1,9.2,6,27.79,27.79,0,0,1,5.9,9.5,36.21,36.21,0,0,1,2.1,12.6A35.42,35.42,0,0,1,416,73.9a25.93,25.93,0,0,1-5.9,9.6,25.55,25.55,0,0,1-9.2,6.1,35.05,35.05,0,0,1-23.9,0,24.33,24.33,0,0,1-9.2-6.1,27.31,27.31,0,0,1-5.9-9.6,36.21,36.21,0,0,1-2.1-12.6,36.21,36.21,0,0,1,2.1-12.6,26.87,26.87,0,0,1,5.9-9.5,25.33,25.33,0,0,1,9.2-6A32.86,32.86,0,0,1,389,31.1Zm0,49.8c4.9,0,8.5-1.6,10.9-4.9s3.5-8.1,3.5-14.5-1.2-11.2-3.5-14.5-6-5-10.9-5-8.7,1.7-11.1,5-3.6,8.2-3.6,14.5,1.2,11.1,3.6,14.5S384,80.9,389,80.9Z"/><path class="cls-1" d="M442.3,39.2a30,30,0,0,1,3.8-3.3,22.64,22.64,0,0,1,4.2-2.6,26.4,26.4,0,0,1,4.7-1.7,23.77,23.77,0,0,1,5.5-.6,21.28,21.28,0,0,1,8.6,1.6,16,16,0,0,1,6.2,4.6,20.15,20.15,0,0,1,3.8,7.1,29,29,0,0,1,1.3,9.1V91H466.2V53.4c0-3.6-.8-6.4-2.5-8.4s-4.2-3-7.5-3a14.68,14.68,0,0,0-6.9,1.7,25.24,25.24,0,0,0-6.1,4.5V91H429V32h8.7a3.55,3.55,0,0,1,3.6,2.6Z"/><path class="cls-1" d="M504.8,63.3a28.27,28.27,0,0,0,1.6,7.8,17.5,17.5,0,0,0,3.3,5.5,11.63,11.63,0,0,0,4.9,3.2,18.1,18.1,0,0,0,6.3,1.1,21.26,21.26,0,0,0,6-.8,22.4,22.4,0,0,0,4.4-1.8c1.2-.7,2.3-1.2,3.3-1.8a5.6,5.6,0,0,1,2.7-.8,2.72,2.72,0,0,1,2.6,1.3l4.1,5.2a23.08,23.08,0,0,1-5.3,4.6,38.29,38.29,0,0,1-6.1,3,29.42,29.42,0,0,1-6.5,1.6,47.2,47.2,0,0,1-6.4.5,32.5,32.5,0,0,1-11.4-2,27.15,27.15,0,0,1-9.2-6,29.26,29.26,0,0,1-6.2-9.9,38.24,38.24,0,0,1-2.2-13.7,33.34,33.34,0,0,1,2-11.4,29.24,29.24,0,0,1,5.6-9.3,25.89,25.89,0,0,1,8.9-6.2,30.06,30.06,0,0,1,11.9-2.3,29,29,0,0,1,10.3,1.8,23,23,0,0,1,8.1,5.2,24.09,24.09,0,0,1,5.3,8.4,31,31,0,0,1,1.9,11.4c0,2.1-.2,3.6-.7,4.3a2.92,2.92,0,0,1-2.6,1.1H504.8Zm27.1-8.6a17.68,17.68,0,0,0-.8-5.2,12.71,12.71,0,0,0-2.3-4.3,10.5,10.5,0,0,0-3.9-2.9,14.87,14.87,0,0,0-15.2,2.4c-2.4,2.3-3.9,5.7-4.5,9.9h26.7Z"/><path class="cls-1" d="M591.2,43.5a5.12,5.12,0,0,1-1.2,1.3,3.77,3.77,0,0,1-1.6.4,4.87,4.87,0,0,1-2.2-.6c-.8-.4-1.7-.8-2.7-1.3A23.42,23.42,0,0,0,580,42a16.27,16.27,0,0,0-4.7-.6,10.78,10.78,0,0,0-6.6,1.8,5.53,5.53,0,0,0-2.4,4.7,4.54,4.54,0,0,0,1.2,3.2,10.68,10.68,0,0,0,3.3,2.3,40.16,40.16,0,0,0,4.6,1.8c1.7.5,3.5,1.1,5.3,1.7s3.5,1.3,5.3,2.1a18.26,18.26,0,0,1,4.6,3,13.75,13.75,0,0,1,3.3,4.3,14.12,14.12,0,0,1,1.2,6.1,19.72,19.72,0,0,1-1.5,7.8,16.26,16.26,0,0,1-4.5,6.2,22.91,22.91,0,0,1-7.4,4.1A31.11,31.11,0,0,1,571.6,92a40.47,40.47,0,0,1-6-.5A51.18,51.18,0,0,1,560,90a31.69,31.69,0,0,1-4.9-2.3,24.12,24.12,0,0,1-4-2.9l3.3-5.4a4.31,4.31,0,0,1,1.5-1.5,4.77,4.77,0,0,1,2.2-.5,4.51,4.51,0,0,1,2.5.7c.8.5,1.7,1,2.7,1.6a21.59,21.59,0,0,0,3.7,1.6,16.21,16.21,0,0,0,5.3.7,13.52,13.52,0,0,0,4.3-.6,8.58,8.58,0,0,0,3-1.6,5.32,5.32,0,0,0,1.7-2.3,6.46,6.46,0,0,0,.5-2.7,4.87,4.87,0,0,0-1.2-3.4,10.68,10.68,0,0,0-3.3-2.3,35.67,35.67,0,0,0-4.7-1.8c-1.7-.5-3.5-1.1-5.3-1.7a34.86,34.86,0,0,1-5.3-2.2,21.26,21.26,0,0,1-4.7-3.1,13.31,13.31,0,0,1-3.3-4.7,17.06,17.06,0,0,1-1.2-6.7,18.1,18.1,0,0,1,1.4-6.9,16.9,16.9,0,0,1,4.2-5.7,22.38,22.38,0,0,1,7-3.9,28.45,28.45,0,0,1,9.6-1.5,30.06,30.06,0,0,1,11.1,2,24.16,24.16,0,0,1,8.3,5.3Z"/><path class="cls-1" d="M36.5,138.8a22.28,22.28,0,0,1-1.5,8.3,19.17,19.17,0,0,1-4.2,6.5,18.67,18.67,0,0,1-6.6,4.2,23.36,23.36,0,0,1-8.5,1.5H0V118.1H15.7a23,23,0,0,1,8.5,1.5,18.67,18.67,0,0,1,6.6,4.2,19.17,19.17,0,0,1,4.2,6.5A26.63,26.63,0,0,1,36.5,138.8Zm-7.9,0a19.09,19.09,0,0,0-.9-6.1,13.78,13.78,0,0,0-2.6-4.6,12.19,12.19,0,0,0-4.1-2.9,13.33,13.33,0,0,0-5.4-1h-8v29h8a13.33,13.33,0,0,0,5.4-1,10.94,10.94,0,0,0,4.1-2.9,12.86,12.86,0,0,0,2.6-4.6A17.43,17.43,0,0,0,28.6,138.8Z"/><path class="cls-1" d="M49.9,121.6a3.29,3.29,0,0,1-.4,1.7,4.51,4.51,0,0,1-1,1.4,7.1,7.1,0,0,1-1.4,1,5.26,5.26,0,0,1-1.8.4,3.29,3.29,0,0,1-1.7-.4,4.51,4.51,0,0,1-1.4-1,7.1,7.1,0,0,1-1-1.4,4.71,4.71,0,0,1-.4-1.7,3.92,3.92,0,0,1,.4-1.8,3.59,3.59,0,0,1,1-1.4,7.1,7.1,0,0,1,1.4-1,4.71,4.71,0,0,1,1.7-.4,3.92,3.92,0,0,1,1.8.4,3.59,3.59,0,0,1,1.4,1,7.1,7.1,0,0,1,1,1.4A3.66,3.66,0,0,1,49.9,121.6Zm-1,8.5v29.2H41.8V130.1Z"/><path class="cls-1" d="M62.7,135.2a13.6,13.6,0,0,1,3.2-4.1,6.9,6.9,0,0,1,4.4-1.5,5.27,5.27,0,0,1,3.2.9l-.5,5.3c-.1.3-.2.6-.4.7a1.45,1.45,0,0,1-.7.2,7.17,7.17,0,0,1-1.3-.1,9.15,9.15,0,0,0-1.6-.1,6.65,6.65,0,0,0-2.1.3,4.35,4.35,0,0,0-1.6,1,5.34,5.34,0,0,0-1.3,1.6,10.24,10.24,0,0,0-1,2.1v18H56V130.3h4.1a2.08,2.08,0,0,1,1.5.4,2.29,2.29,0,0,1,.6,1.4Z"/><path class="cls-1" d="M81.9,145.6a14.13,14.13,0,0,0,.8,3.9,7.34,7.34,0,0,0,1.7,2.7,7.09,7.09,0,0,0,5.5,2.1,9.48,9.48,0,0,0,3-.4c.8-.3,1.5-.6,2.2-.9a11.42,11.42,0,0,0,1.6-.9,2.5,2.5,0,0,1,1.4-.4,1.36,1.36,0,0,1,1.3.7l2,2.6a13.85,13.85,0,0,1-2.6,2.3,21,21,0,0,1-3,1.5,18.72,18.72,0,0,1-3.2.8,17.75,17.75,0,0,1-3.2.2,15.55,15.55,0,0,1-5.7-1,14.08,14.08,0,0,1-4.6-3,13.48,13.48,0,0,1-3-4.9,19.77,19.77,0,0,1-1.1-6.8,14.67,14.67,0,0,1,1-5.6,12.65,12.65,0,0,1,2.8-4.6,14,14,0,0,1,4.4-3.1,13.81,13.81,0,0,1,5.9-1.1,14.4,14.4,0,0,1,5.1.9,9.93,9.93,0,0,1,4,2.6,11.1,11.1,0,0,1,2.6,4.2,16.42,16.42,0,0,1,1,5.6,5.39,5.39,0,0,1-.3,2.2,1.38,1.38,0,0,1-1.3.6H81.9Zm13.5-4.2a7.46,7.46,0,0,0-.4-2.6,5.49,5.49,0,0,0-1.2-2.1,4.83,4.83,0,0,0-2-1.4,6.1,6.1,0,0,0-2.8-.5,6.85,6.85,0,0,0-4.8,1.7,8.28,8.28,0,0,0-2.2,4.9H95.4Z"/><path class="cls-1" d="M127.9,136.3a1.7,1.7,0,0,1-.6.6c-.2.2-.5.2-.9.2a2.28,2.28,0,0,1-1.1-.3,12.75,12.75,0,0,0-1.2-.7,6.69,6.69,0,0,0-1.7-.7,8.75,8.75,0,0,0-2.4-.3,6.57,6.57,0,0,0-3.2.7,6,6,0,0,0-2.3,1.9,8.34,8.34,0,0,0-1.4,3,16.2,16.2,0,0,0-.5,4,17.91,17.91,0,0,0,.5,4.2,9.78,9.78,0,0,0,1.4,3.1,6,6,0,0,0,2.3,1.9,7.31,7.31,0,0,0,3,.6,7,7,0,0,0,2.7-.4,15,15,0,0,0,1.8-.9,6.23,6.23,0,0,0,1.2-.9,1.59,1.59,0,0,1,1.2-.4,1.36,1.36,0,0,1,1.3.7l2,2.6a13.38,13.38,0,0,1-2.5,2.3,19.1,19.1,0,0,1-2.8,1.5,16.66,16.66,0,0,1-3,.8,16.15,16.15,0,0,1-3.1.2,12.23,12.23,0,0,1-9.3-4,14.68,14.68,0,0,1-2.8-4.7,18.3,18.3,0,0,1-1-6.4,19.81,19.81,0,0,1,.9-6,14.19,14.19,0,0,1,2.7-4.8,12.55,12.55,0,0,1,4.4-3.1,14.76,14.76,0,0,1,6.1-1.1,14.13,14.13,0,0,1,5.7,1.1,14.34,14.34,0,0,1,4.4,3Z"/><path class="cls-1" d="M154.9,136.3a1.7,1.7,0,0,1-.6.6c-.2.2-.5.2-.9.2a2.28,2.28,0,0,1-1.1-.3,12.75,12.75,0,0,0-1.2-.7,6.69,6.69,0,0,0-1.7-.7,8.75,8.75,0,0,0-2.4-.3,6.57,6.57,0,0,0-3.2.7,6,6,0,0,0-2.3,1.9,8.34,8.34,0,0,0-1.4,3,16.2,16.2,0,0,0-.5,4,17.91,17.91,0,0,0,.5,4.2,9.78,9.78,0,0,0,1.4,3.1,6,6,0,0,0,2.3,1.9,7.31,7.31,0,0,0,3,.6,7,7,0,0,0,2.7-.4,15,15,0,0,0,1.8-.9,6.23,6.23,0,0,0,1.2-.9,1.59,1.59,0,0,1,1.2-.4,1.36,1.36,0,0,1,1.3.7l2,2.6a13.38,13.38,0,0,1-2.5,2.3,19.1,19.1,0,0,1-2.8,1.5,16.66,16.66,0,0,1-3,.8,16.15,16.15,0,0,1-3.1.2,12.23,12.23,0,0,1-9.3-4,14.68,14.68,0,0,1-2.8-4.7,18.3,18.3,0,0,1-1-6.4,19.81,19.81,0,0,1,.9-6,14.19,14.19,0,0,1,2.7-4.8,12.55,12.55,0,0,1,4.4-3.1,14.76,14.76,0,0,1,6.1-1.1,14.13,14.13,0,0,1,5.7,1.1,14.34,14.34,0,0,1,4.4,3Z"/><path class="cls-1" d="M169.7,121.6a3.29,3.29,0,0,1-.4,1.7,4.51,4.51,0,0,1-1,1.4,7.1,7.1,0,0,1-1.4,1,5.26,5.26,0,0,1-1.8.4,3.29,3.29,0,0,1-1.7-.4,4.51,4.51,0,0,1-1.4-1,7.1,7.1,0,0,1-1-1.4,4.71,4.71,0,0,1-.4-1.7,3.92,3.92,0,0,1,.4-1.8,3.59,3.59,0,0,1,1-1.4,7.1,7.1,0,0,1,1.4-1,4.71,4.71,0,0,1,1.7-.4,3.92,3.92,0,0,1,1.8.4,3.59,3.59,0,0,1,1.4,1,7.1,7.1,0,0,1,1,1.4A3.66,3.66,0,0,1,169.7,121.6Zm-1,8.5v29.2h-7.1V130.1Z"/><path class="cls-1" d="M188.8,129.7a15.89,15.89,0,0,1,5.9,1.1,13.1,13.1,0,0,1,4.6,3,13.29,13.29,0,0,1,2.9,4.7,17.54,17.54,0,0,1,1,6.2,18.11,18.11,0,0,1-1,6.3,15.39,15.39,0,0,1-2.9,4.8,13.1,13.1,0,0,1-4.6,3,15.89,15.89,0,0,1-5.9,1.1,16.43,16.43,0,0,1-6-1.1,13.1,13.1,0,0,1-4.6-3,12.87,12.87,0,0,1-2.9-4.8,18.11,18.11,0,0,1-1-6.3,17.17,17.17,0,0,1,1-6.2,13.85,13.85,0,0,1,2.9-4.7,13.1,13.1,0,0,1,4.6-3A14.59,14.59,0,0,1,188.8,129.7Zm0,24.7a6.14,6.14,0,0,0,5.4-2.5q1.8-2.4,1.8-7.2t-1.8-7.2a6.14,6.14,0,0,0-5.4-2.5,6.21,6.21,0,0,0-5.5,2.5q-1.8,2.55-1.8,7.2t1.8,7.2A6.21,6.21,0,0,0,188.8,154.4Zm9.9-36.7-7,7.4a5.77,5.77,0,0,1-1,.8,4.44,4.44,0,0,1-1.3.2h-4.2l4-6.9a2.71,2.71,0,0,1,1-1.1,3.87,3.87,0,0,1,1.7-.4Z"/><path class="cls-1" d="M215.2,133.7a14.62,14.62,0,0,1,1.9-1.6,14.8,14.8,0,0,1,2.1-1.3,9.68,9.68,0,0,1,2.4-.8,11.15,11.15,0,0,1,2.7-.3,10.84,10.84,0,0,1,4.2.8,7.88,7.88,0,0,1,3.1,2.3,9.84,9.84,0,0,1,1.9,3.5,16.31,16.31,0,0,1,.6,4.5v18.6h-7V140.8a6.08,6.08,0,0,0-1.2-4.1,4.54,4.54,0,0,0-3.7-1.5,7.73,7.73,0,0,0-3.4.8,10.93,10.93,0,0,0-3,2.3v21.1h-7V130.2h4.3a1.72,1.72,0,0,1,1.8,1.3Z"/><path class="cls-1" d="M280.1,117v42.4h-4.3a1.72,1.72,0,0,1-1.8-1.3l-.6-2.8a16.52,16.52,0,0,1-4.1,3.3,11.23,11.23,0,0,1-5.3,1.3,9.2,9.2,0,0,1-4.4-1,9.43,9.43,0,0,1-3.4-2.9,12.8,12.8,0,0,1-2.2-4.7,24.89,24.89,0,0,1-.8-6.4,18.9,18.9,0,0,1,.9-6,13.66,13.66,0,0,1,2.5-4.8,11.77,11.77,0,0,1,9.2-4.4,10.84,10.84,0,0,1,4.2.8,9.45,9.45,0,0,1,3.1,2.1V117Zm-7,20.6a7.1,7.1,0,0,0-2.6-2.1,7.65,7.65,0,0,0-3-.6,6.84,6.84,0,0,0-2.9.6,5.48,5.48,0,0,0-2.2,1.8,8.1,8.1,0,0,0-1.4,3.1,18.39,18.39,0,0,0-.5,4.4,17.44,17.44,0,0,0,.4,4.3,9.74,9.74,0,0,0,1.2,2.9,3.68,3.68,0,0,0,1.9,1.6,6.55,6.55,0,0,0,2.5.5,7,7,0,0,0,3.7-.9,11.57,11.57,0,0,0,2.9-2.6Z"/><path class="cls-1" d="M292.5,145.6a14.13,14.13,0,0,0,.8,3.9,7.34,7.34,0,0,0,1.7,2.7,7.09,7.09,0,0,0,5.5,2.1,9.48,9.48,0,0,0,3-.4c.8-.3,1.5-.6,2.2-.9a11.42,11.42,0,0,0,1.6-.9,2.5,2.5,0,0,1,1.4-.4,1.36,1.36,0,0,1,1.3.7l2,2.6a13.85,13.85,0,0,1-2.6,2.3,21,21,0,0,1-3,1.5,18.73,18.73,0,0,1-3.2.8,17.74,17.74,0,0,1-3.2.2,15.55,15.55,0,0,1-5.7-1,14.08,14.08,0,0,1-4.6-3,13.48,13.48,0,0,1-3-4.9,19.78,19.78,0,0,1-1.1-6.8,14.67,14.67,0,0,1,1-5.6,12.65,12.65,0,0,1,2.8-4.6,14,14,0,0,1,4.4-3.1,13.81,13.81,0,0,1,5.9-1.1,14.4,14.4,0,0,1,5.1.9,9.93,9.93,0,0,1,4,2.6,11.1,11.1,0,0,1,2.6,4.2,16.42,16.42,0,0,1,1,5.6,5.39,5.39,0,0,1-.3,2.2,1.38,1.38,0,0,1-1.3.6H292.5Zm13.4-4.2a7.46,7.46,0,0,0-.4-2.6,5.49,5.49,0,0,0-1.2-2.1,4.83,4.83,0,0,0-2-1.4,6.1,6.1,0,0,0-2.8-.5,6.85,6.85,0,0,0-4.8,1.7,8.28,8.28,0,0,0-2.2,4.9h13.4Z"/><path class="cls-1" d="M340.3,124.3v12.2h15.4v6.1H340.3v16.8h-7.7V118.2h26v6.1Z"/><path class="cls-1" d="M371.9,121.6a3.29,3.29,0,0,1-.4,1.7,4.51,4.51,0,0,1-1,1.4,7.1,7.1,0,0,1-1.4,1,5.26,5.26,0,0,1-1.8.4,3.29,3.29,0,0,1-1.7-.4,4.51,4.51,0,0,1-1.4-1,7.1,7.1,0,0,1-1-1.4,4.71,4.71,0,0,1-.4-1.7,3.92,3.92,0,0,1,.4-1.8,3.59,3.59,0,0,1,1-1.4,7.1,7.1,0,0,1,1.4-1,4.71,4.71,0,0,1,1.7-.4,3.92,3.92,0,0,1,1.8.4,3.59,3.59,0,0,1,1.4,1,7.1,7.1,0,0,1,1,1.4A3.66,3.66,0,0,1,371.9,121.6Zm-.9,8.5v29.2h-7.1V130.1Z"/><path class="cls-1" d="M385.3,117v42.4h-7V117Z"/><path class="cls-1" d="M391.6,134.2a17.26,17.26,0,0,1,12.1-4.6,13.44,13.44,0,0,1,4.6.8,10.21,10.21,0,0,1,3.4,2.3,10.68,10.68,0,0,1,2.1,3.6,13.46,13.46,0,0,1,.7,4.6v18.5h-3.2a2.81,2.81,0,0,1-1.5-.3c-.4-.2-.6-.6-.9-1.2l-.6-2.1c-.7.7-1.5,1.2-2.2,1.8a15.92,15.92,0,0,1-2.2,1.3,11.27,11.27,0,0,1-2.4.8,12.92,12.92,0,0,1-2.9.3,12.13,12.13,0,0,1-3.4-.5,7.2,7.2,0,0,1-2.7-1.5,7.63,7.63,0,0,1-1.8-2.5,9,9,0,0,1-.6-3.4,5.7,5.7,0,0,1,.4-2.2,11.25,11.25,0,0,1,1.2-2.1,10.4,10.4,0,0,1,2.2-1.9,12.62,12.62,0,0,1,3.3-1.5,37.15,37.15,0,0,1,4.5-1.1,48.26,48.26,0,0,1,5.9-.5v-1.7c0-2-.4-3.4-1.3-4.3a4.74,4.74,0,0,0-3.6-1.4,7.54,7.54,0,0,0-2.8.4,19.47,19.47,0,0,0-2,.9c-.6.3-1.1.6-1.6.9a2.93,2.93,0,0,1-1.6.4,2,2,0,0,1-1.3-.4,6.47,6.47,0,0,1-.8-.9Zm16.2,12.7c-2,.1-3.7.3-5.1.5a14.54,14.54,0,0,0-3.3,1,5.37,5.37,0,0,0-1.8,1.4,2.62,2.62,0,0,0-.5,1.7,3.39,3.39,0,0,0,1.1,2.7,5,5,0,0,0,2.9.8,8.41,8.41,0,0,0,3.7-.8,10.84,10.84,0,0,0,3.1-2.4v-4.9Z"/><path class="cls-1" d="M427.8,133.7a14.62,14.62,0,0,1,1.9-1.6,14.8,14.8,0,0,1,2.1-1.3,9.68,9.68,0,0,1,2.4-.8,11.15,11.15,0,0,1,2.7-.3,10.84,10.84,0,0,1,4.2.8,7.88,7.88,0,0,1,3.1,2.3,9.84,9.84,0,0,1,1.9,3.5,16.31,16.31,0,0,1,.6,4.5v18.6h-7V140.8a6.08,6.08,0,0,0-1.2-4.1,4.54,4.54,0,0,0-3.7-1.5,7.73,7.73,0,0,0-3.4.8,10.93,10.93,0,0,0-3,2.3v21.1h-7V130.2h4.3a1.72,1.72,0,0,1,1.8,1.3Z"/><path class="cls-1" d="M462.7,159.8a7.7,7.7,0,0,1-5.9-2.2,8.14,8.14,0,0,1-2-5.9V135.4h-3a1.28,1.28,0,0,1-1-.4,1.25,1.25,0,0,1-.4-1.1v-2.8l4.7-.8,1.5-8a1.93,1.93,0,0,1,.5-.9,1.69,1.69,0,0,1,1-.3h3.6v9.2h7.8v5h-7.8v15.8a2.82,2.82,0,0,0,.7,2.1,2.34,2.34,0,0,0,1.8.8,3.59,3.59,0,0,0,1.1-.2,6.89,6.89,0,0,0,.8-.3l.6-.3c.2-.1.3-.2.5-.2a.76.76,0,0,1,.5.2,2.18,2.18,0,0,1,.4.5l2.1,3.4a9.18,9.18,0,0,1-3.5,1.9A8.68,8.68,0,0,1,462.7,159.8Z"/><path class="cls-1" d="M480.8,135.2a13.6,13.6,0,0,1,3.2-4.1,6.9,6.9,0,0,1,4.4-1.5,5.27,5.27,0,0,1,3.2.9l-.5,5.3c-.1.3-.2.6-.4.7a1.45,1.45,0,0,1-.7.2,7.17,7.17,0,0,1-1.3-.1,9.15,9.15,0,0,0-1.6-.1,6.65,6.65,0,0,0-2.1.3,4.36,4.36,0,0,0-1.6,1,5.34,5.34,0,0,0-1.3,1.6,10.24,10.24,0,0,0-1,2.1v18h-7V130.3h4.1a2.08,2.08,0,0,1,1.5.4,2.29,2.29,0,0,1,.6,1.4Z"/><path class="cls-1" d="M507.6,129.7a15.89,15.89,0,0,1,5.9,1.1,13.1,13.1,0,0,1,4.6,3,13.29,13.29,0,0,1,2.9,4.7,17.54,17.54,0,0,1,1,6.2,18.11,18.11,0,0,1-1,6.3,15.39,15.39,0,0,1-2.9,4.8,13.1,13.1,0,0,1-4.6,3,15.89,15.89,0,0,1-5.9,1.1,16.43,16.43,0,0,1-6-1.1,13.1,13.1,0,0,1-4.6-3,12.87,12.87,0,0,1-2.9-4.8,18.11,18.11,0,0,1-1-6.3,17.17,17.17,0,0,1,1-6.2,13.85,13.85,0,0,1,2.9-4.7,13.1,13.1,0,0,1,4.6-3A14.59,14.59,0,0,1,507.6,129.7Zm0,24.7a6.14,6.14,0,0,0,5.4-2.5q1.8-2.4,1.8-7.2t-1.8-7.2a6.14,6.14,0,0,0-5.4-2.5,6.21,6.21,0,0,0-5.5,2.5q-1.8,2.55-1.8,7.2t1.8,7.2A6.21,6.21,0,0,0,507.6,154.4Z"/><path class="cls-1" d="M534,134.1a18.57,18.57,0,0,1,4.1-3.3,11.34,11.34,0,0,1,5.4-1.3,9.2,9.2,0,0,1,4.4,1,9.43,9.43,0,0,1,3.4,2.9,12.8,12.8,0,0,1,2.2,4.7,24.89,24.89,0,0,1,.8,6.4,20,20,0,0,1-.9,6.1,13.66,13.66,0,0,1-2.5,4.8,11.77,11.77,0,0,1-9.2,4.4,10.84,10.84,0,0,1-4.2-.8,9.45,9.45,0,0,1-3.1-2.1v12h-7V130.1h4.3a1.72,1.72,0,0,1,1.8,1.3Zm.4,17.7a7.1,7.1,0,0,0,2.6,2.1,7.79,7.79,0,0,0,3.1.6,6.84,6.84,0,0,0,2.9-.6,5.48,5.48,0,0,0,2.2-1.8,8.1,8.1,0,0,0,1.4-3.1,18.39,18.39,0,0,0,.5-4.4,17.44,17.44,0,0,0-.4-4.3,9.74,9.74,0,0,0-1.2-2.9,4.21,4.21,0,0,0-1.9-1.6,7.36,7.36,0,0,0-6.2.4,11.57,11.57,0,0,0-2.9,2.6v13Z"/><path class="cls-1" d="M573.6,117.7l-7,7.4a5.77,5.77,0,0,1-1,.8,4.44,4.44,0,0,1-1.3.2h-4.2l4-6.9a2.71,2.71,0,0,1,1-1.1,2.67,2.67,0,0,1,1.7-.4ZM567,130.1v29.2h-7V130.1Z"/><path class="cls-1" d="M573.6,134.2a17.26,17.26,0,0,1,12.1-4.6,13.44,13.44,0,0,1,4.6.8,10.21,10.21,0,0,1,3.4,2.3,10.68,10.68,0,0,1,2.1,3.6,13.46,13.46,0,0,1,.7,4.6v18.5h-3.2a2.81,2.81,0,0,1-1.5-.3c-.4-.2-.6-.6-.9-1.2l-.6-2.1c-.7.7-1.5,1.2-2.2,1.8a15.92,15.92,0,0,1-2.2,1.3,11.27,11.27,0,0,1-2.4.8,12.92,12.92,0,0,1-2.9.3,12.13,12.13,0,0,1-3.4-.5,7.2,7.2,0,0,1-2.7-1.5,7.63,7.63,0,0,1-1.8-2.5,9,9,0,0,1-.6-3.4,5.7,5.7,0,0,1,.4-2.2,11.25,11.25,0,0,1,1.2-2.1,10.4,10.4,0,0,1,2.2-1.9,12.62,12.62,0,0,1,3.3-1.5,37.15,37.15,0,0,1,4.5-1.1,48.26,48.26,0,0,1,5.9-.5v-1.7c0-2-.4-3.4-1.3-4.3a4.74,4.74,0,0,0-3.6-1.4,7.54,7.54,0,0,0-2.8.4,19.47,19.47,0,0,0-2,.9c-.6.3-1.1.6-1.6.9a2.93,2.93,0,0,1-1.6.4,2,2,0,0,1-1.3-.4,6.47,6.47,0,0,1-.8-.9Zm16.1,12.7c-2,.1-3.7.3-5.1.5a14.54,14.54,0,0,0-3.3,1,5.37,5.37,0,0,0-1.8,1.4,2.62,2.62,0,0,0-.5,1.7,3.39,3.39,0,0,0,1.1,2.7,5,5,0,0,0,2.9.8,8.41,8.41,0,0,0,3.7-.8,10.84,10.84,0,0,0,3.1-2.4v-4.9Z"/></svg>