<svg id="Layer_1" data-name="Layer 1" xmlns="http://www.w3.org/2000/svg" viewBox="0 0 596.6 239"><defs><style>.cls-1{fill:#fff;}</style></defs><title>Donaciones</title><path class="cls-1" d="M93.74,53.17a49.27,49.27,0,0,1-3.34,18.4A41.31,41.31,0,0,1,66.46,95.38a51.3,51.3,0,0,1-18.9,3.34H12.84V7.62H47.56A50.91,50.91,0,0,1,66.46,11,42.62,42.62,0,0,1,81,20.38a42,42,0,0,1,9.39,14.4A49.28,49.28,0,0,1,93.74,53.17Zm-17.39,0a42.41,42.41,0,0,0-2-13.45,27.87,27.87,0,0,0-5.73-10.08,25,25,0,0,0-9.07-6.33,31.11,31.11,0,0,0-12-2.21H29.85V85.24h17.7a31.11,31.11,0,0,0,12-2.2,25,25,0,0,0,9.07-6.33,27.87,27.87,0,0,0,5.73-10.08A42.41,42.41,0,0,0,76.35,53.17Z"/><path class="cls-1" d="M134,33.07a35.27,35.27,0,0,1,13.07,2.33A28.67,28.67,0,0,1,157.15,42a29.08,29.08,0,0,1,6.46,10.46,39.79,39.79,0,0,1,2.27,13.8,40,40,0,0,1-2.27,13.86,29.69,29.69,0,0,1-6.46,10.52,28.23,28.23,0,0,1-10.08,6.68A35.27,35.27,0,0,1,134,99.66a35.69,35.69,0,0,1-13.17-2.33,28.15,28.15,0,0,1-10.11-6.68,30,30,0,0,1-6.49-10.52,39.47,39.47,0,0,1-2.3-13.86,39.29,39.29,0,0,1,2.3-13.8A29.4,29.4,0,0,1,110.71,42a28.59,28.59,0,0,1,10.11-6.62A35.69,35.69,0,0,1,134,33.07Zm0,54.62q8.06,0,11.94-5.42t3.87-15.88q0-10.46-3.87-15.94T134,45q-8.19,0-12.13,5.51T117.93,66.4q0,10.4,3.94,15.84T134,87.69Z"/><path class="cls-1" d="M192.33,42a42.11,42.11,0,0,1,4.13-3.62,26.14,26.14,0,0,1,4.6-2.83,25.69,25.69,0,0,1,5.2-1.83,26,26,0,0,1,6-.66,23.17,23.17,0,0,1,9.39,1.8,18.55,18.55,0,0,1,6.84,5,22.18,22.18,0,0,1,4.16,7.75,33,33,0,0,1,1.42,9.92V98.72H218.54V57.58q0-5.92-2.71-9.17t-8.25-3.24A16.21,16.21,0,0,0,200,47a27.1,27.1,0,0,0-6.68,5V98.72H177.78V34.08h9.51a3.82,3.82,0,0,1,4,2.83Z"/><path class="cls-1" d="M247.33,43.09a38.36,38.36,0,0,1,26.84-10.21,26.25,26.25,0,0,1,10.14,1.86,21.44,21.44,0,0,1,7.56,5.17,22.11,22.11,0,0,1,4.69,7.91,30.38,30.38,0,0,1,1.61,10.08V98.72h-7.06a7.14,7.14,0,0,1-3.4-.66,4.59,4.59,0,0,1-1.89-2.68l-1.39-4.66a56.28,56.28,0,0,1-4.79,3.87,28.14,28.14,0,0,1-4.85,2.8,26.1,26.1,0,0,1-5.39,1.73,31,31,0,0,1-6.33.6,24.83,24.83,0,0,1-7.56-1.1,16.59,16.59,0,0,1-6-3.31,14.83,14.83,0,0,1-3.91-5.48,19.45,19.45,0,0,1-1.39-7.62,15.16,15.16,0,0,1,.82-4.88,14.23,14.23,0,0,1,2.68-4.63,22.26,22.26,0,0,1,4.82-4.16,31.33,31.33,0,0,1,7.28-3.4,62.89,62.89,0,0,1,10-2.36,100.49,100.49,0,0,1,13.1-1.1V57.89q0-6.49-2.77-9.61t-8-3.12a19,19,0,0,0-6.27.88,25.89,25.89,0,0,0-4.38,2l-3.43,2a6.79,6.79,0,0,1-3.43.88,4.48,4.48,0,0,1-2.77-.85,7.07,7.07,0,0,1-1.83-2Zm35.66,28a85.89,85.89,0,0,0-11.34,1.17,30.24,30.24,0,0,0-7.37,2.17,9.68,9.68,0,0,0-4,3.09,6.7,6.7,0,0,0-1.2,3.84q0,4.1,2.43,5.86A10.51,10.51,0,0,0,267.87,89a18.46,18.46,0,0,0,8.28-1.73A24.59,24.59,0,0,0,283,82Z"/><path class="cls-1" d="M377.11,98.72H361.55v-53h-30v35A7,7,0,0,0,333,85.49a5.1,5.1,0,0,0,4.06,1.7,7.31,7.31,0,0,0,2.43-.35,13.21,13.21,0,0,0,1.7-.72q.72-.38,1.29-.72a2.16,2.16,0,0,1,1.13-.35,1.79,1.79,0,0,1,1.13.35,5.3,5.3,0,0,1,.94,1L350.4,94a23.54,23.54,0,0,1-7.81,4.28,29.09,29.09,0,0,1-9.13,1.45Q325,99.73,320.5,95T316,81.83V45.73h-6.62a3,3,0,0,1-2.14-.82,3.19,3.19,0,0,1-.88-2.46V36.28l10.4-1.76L320,16.94a3.45,3.45,0,0,1,1.2-2,3.56,3.56,0,0,1,2.27-.69h8.06V34.65h45.55ZM379.82,15A9.09,9.09,0,0,1,379,18.8,10.1,10.1,0,0,1,373.61,24a10,10,0,0,1-3.94.79A9.16,9.16,0,0,1,365.9,24a10.2,10.2,0,0,1-3.09-2.11,10.09,10.09,0,0,1-2.11-3.12,9.38,9.38,0,0,1-.79-3.81,9.53,9.53,0,0,1,.79-3.87A10.5,10.5,0,0,1,362.81,8a10,10,0,0,1,3.09-2.14A9.17,9.17,0,0,1,369.68,5,10.15,10.15,0,0,1,376.83,8,10.73,10.73,0,0,1,379,11.12,9.24,9.24,0,0,1,379.82,15Z"/><path class="cls-1" d="M421.59,33.07a35.27,35.27,0,0,1,13.07,2.33A28.67,28.67,0,0,1,444.74,42a29.08,29.08,0,0,1,6.46,10.46,39.79,39.79,0,0,1,2.27,13.8,40,40,0,0,1-2.27,13.86,29.69,29.69,0,0,1-6.46,10.52,28.23,28.23,0,0,1-10.08,6.68,35.27,35.27,0,0,1-13.07,2.33,35.69,35.69,0,0,1-13.17-2.33,28.15,28.15,0,0,1-10.11-6.68,30,30,0,0,1-6.49-10.52,39.47,39.47,0,0,1-2.3-13.86,39.29,39.29,0,0,1,2.3-13.8A29.4,29.4,0,0,1,398.31,42a28.59,28.59,0,0,1,10.11-6.62A35.69,35.69,0,0,1,421.59,33.07Zm0,54.62q8.06,0,11.94-5.42T437.4,66.4q0-10.46-3.87-15.94T421.59,45q-8.19,0-12.13,5.51T405.52,66.4q0,10.4,3.94,15.84T421.59,87.69Z"/><path class="cls-1" d="M479.92,42A42.11,42.11,0,0,1,484,38.4a26.14,26.14,0,0,1,4.6-2.83,25.69,25.69,0,0,1,5.2-1.83,26,26,0,0,1,6-.66,23.17,23.17,0,0,1,9.39,1.8,18.55,18.55,0,0,1,6.84,5,22.18,22.18,0,0,1,4.16,7.75,33,33,0,0,1,1.42,9.92V98.72H506.13V57.58q0-5.92-2.71-9.17t-8.25-3.24A16.21,16.21,0,0,0,487.61,47a27.1,27.1,0,0,0-6.68,5V98.72H465.37V34.08h9.51a3.82,3.82,0,0,1,4,2.83Z"/><path class="cls-1" d="M575.87,46.68a4.15,4.15,0,0,1-1.32,1.42,3.42,3.42,0,0,1-1.76.41,5.56,5.56,0,0,1-2.43-.63q-1.29-.63-3-1.42A27.46,27.46,0,0,0,563.49,45a18.55,18.55,0,0,0-5.13-.63,11.82,11.82,0,0,0-7.21,2,6.08,6.08,0,0,0-2.61,5.1,4.86,4.86,0,0,0,1.35,3.5,12.16,12.16,0,0,0,3.59,2.49,35.07,35.07,0,0,0,5.07,1.92q2.84.85,5.76,1.86t5.76,2.3a20.22,20.22,0,0,1,5.07,3.28,14.42,14.42,0,0,1,4.95,11.43,21.81,21.81,0,0,1-1.67,8.6,18.59,18.59,0,0,1-4.95,6.8,23.33,23.33,0,0,1-8.1,4.47,37.94,37.94,0,0,1-17.64,1,38.43,38.43,0,0,1-6.11-1.67,33.7,33.7,0,0,1-5.42-2.52,26.24,26.24,0,0,1-4.38-3.15l3.59-5.92a5.07,5.07,0,0,1,1.64-1.64,4.59,4.59,0,0,1,2.39-.57,5,5,0,0,1,2.74.82q1.29.82,3,1.76a26.63,26.63,0,0,0,4,1.76,17.6,17.6,0,0,0,5.83.82,15.1,15.1,0,0,0,4.76-.66,10,10,0,0,0,3.28-1.73,6.51,6.51,0,0,0,1.89-2.49,7.47,7.47,0,0,0,.6-2.93,5.23,5.23,0,0,0-1.35-3.72,11.89,11.89,0,0,0-3.59-2.52,34.75,34.75,0,0,0-5.1-1.92Q552.62,72,549.63,71a54.12,54.12,0,0,1-5.86-2.36,20,20,0,0,1-5.1-3.43,15.55,15.55,0,0,1-3.59-5.1,17.8,17.8,0,0,1-1.35-7.31,18.63,18.63,0,0,1,1.58-7.56A17.73,17.73,0,0,1,539.93,39a23,23,0,0,1,7.62-4.28,31.74,31.74,0,0,1,10.55-1.61,32.31,32.31,0,0,1,12.16,2.21,27.47,27.47,0,0,1,9.14,5.8Z"/><path class="cls-1" d="M18.79,123a21,21,0,0,1,6.4.87,12.33,12.33,0,0,1,4.46,2.42,9.62,9.62,0,0,1,2.61,3.72,12.83,12.83,0,0,1,.85,4.74,13.1,13.1,0,0,1-.89,4.91,10.2,10.2,0,0,1-2.68,3.84,12.44,12.44,0,0,1-4.48,2.5,20,20,0,0,1-6.29.89H13.66v13H6.81V123Zm0,18.54a10.3,10.3,0,0,0,3.29-.47,6.23,6.23,0,0,0,2.33-1.35,5.45,5.45,0,0,0,1.39-2.14,8.18,8.18,0,0,0,.46-2.82,7.42,7.42,0,0,0-.46-2.68,5.28,5.28,0,0,0-1.38-2,6.12,6.12,0,0,0-2.32-1.29,11,11,0,0,0-3.31-.45H13.66v13.23Z"/><path class="cls-1" d="M43.6,136.56A13.73,13.73,0,0,1,47,134.24a9.76,9.76,0,0,1,4.31-.89,9.39,9.39,0,0,1,3.8.73,7.52,7.52,0,0,1,2.77,2,9,9,0,0,1,1.68,3.14,13.32,13.32,0,0,1,.57,4v16.65H53.8V143.27a5.63,5.63,0,0,0-1.1-3.71,4.1,4.1,0,0,0-3.34-1.31,6.56,6.56,0,0,0-3.06.74,11,11,0,0,0-2.7,2v18.92H37.3V122h6.3Z"/><path class="cls-1" d="M73.46,126.13a3.59,3.59,0,0,1-.33,1.53,4.16,4.16,0,0,1-2.17,2.1,4,4,0,0,1-1.58.32,3.81,3.81,0,0,1-1.54-.32,4.07,4.07,0,0,1-2.12-2.1,3.7,3.7,0,0,1-.32-1.53,3.94,3.94,0,0,1,.32-1.58,4,4,0,0,1,2.12-2.13,3.81,3.81,0,0,1,1.54-.32,4,4,0,0,1,1.58.32,4.21,4.21,0,0,1,1.29.85,4.13,4.13,0,0,1,.88,1.28A3.82,3.82,0,0,1,73.46,126.13Zm-.87,7.62v26.16H66.27V133.75Z"/><path class="cls-1" d="M85.4,122v37.89H79.1V122Z"/><path class="cls-1" d="M91.08,137.4a15.52,15.52,0,0,1,10.86-4.13,10.63,10.63,0,0,1,4.11.75,8.69,8.69,0,0,1,3.06,2.09,9,9,0,0,1,1.9,3.2,12.31,12.31,0,0,1,.65,4.08v16.52H108.8a2.88,2.88,0,0,1-1.38-.27,1.86,1.86,0,0,1-.77-1.08l-.56-1.89a22.8,22.8,0,0,1-1.94,1.57,11.47,11.47,0,0,1-2,1.13,10.62,10.62,0,0,1-2.18.7,12.59,12.59,0,0,1-2.56.24,10.06,10.06,0,0,1-3.06-.45A6.71,6.71,0,0,1,92,158.54a6,6,0,0,1-1.58-2.22,7.87,7.87,0,0,1-.56-3.08,6.15,6.15,0,0,1,.33-2,5.76,5.76,0,0,1,1.08-1.87,9,9,0,0,1,2-1.68,12.73,12.73,0,0,1,2.95-1.38,25.54,25.54,0,0,1,4.07-1,40.66,40.66,0,0,1,5.3-.45v-1.53a5.73,5.73,0,0,0-1.12-3.89,4.11,4.11,0,0,0-3.24-1.26,7.71,7.71,0,0,0-2.54.36,10.53,10.53,0,0,0-1.77.8l-1.39.8a2.75,2.75,0,0,1-1.39.36,1.82,1.82,0,0,1-1.12-.34,2.88,2.88,0,0,1-.74-.8Zm14.43,11.35a34.73,34.73,0,0,0-4.59.47,12.21,12.21,0,0,0-3,.88,3.92,3.92,0,0,0-1.61,1.25,3.09,3.09,0,0,0,.5,3.93,4.26,4.26,0,0,0,2.56.71,7.47,7.47,0,0,0,3.35-.7,10,10,0,0,0,2.77-2.13Z"/><path class="cls-1" d="M123.47,137a17,17,0,0,1,1.67-1.47,10.55,10.55,0,0,1,1.86-1.15,10.44,10.44,0,0,1,2.1-.74,10.58,10.58,0,0,1,2.45-.27,9.39,9.39,0,0,1,3.8.73,7.52,7.52,0,0,1,2.77,2,9,9,0,0,1,1.68,3.14,13.32,13.32,0,0,1,.57,4v16.65h-6.3V143.27a5.63,5.63,0,0,0-1.1-3.71,4.1,4.1,0,0,0-3.34-1.31,6.56,6.56,0,0,0-3.06.74,11,11,0,0,0-2.7,2v18.92h-6.3V133.75h3.85A1.55,1.55,0,0,1,123,134.9Z"/><path class="cls-1" d="M154.7,160.33a6.87,6.87,0,0,1-5.24-1.93,7.42,7.42,0,0,1-1.82-5.32V138.47H145a1.23,1.23,0,0,1-.87-.33,1.29,1.29,0,0,1-.36-1v-2.5l4.21-.69,1.33-7.14a1.4,1.4,0,0,1,.48-.79,1.44,1.44,0,0,1,.92-.28h3.26V134h7v4.49h-7v14.18a2.82,2.82,0,0,0,.6,1.91,2.07,2.07,0,0,0,1.64.69,3,3,0,0,0,1-.14,5.61,5.61,0,0,0,.69-.29l.52-.29a.88.88,0,0,1,.46-.14.73.73,0,0,1,.46.14,2.17,2.17,0,0,1,.38.42l1.89,3.06a9.54,9.54,0,0,1-3.16,1.73A11.77,11.77,0,0,1,154.7,160.33Z"/><path class="cls-1" d="M171.25,136.56a13.73,13.73,0,0,1,3.37-2.32,9.76,9.76,0,0,1,4.31-.89,9.39,9.39,0,0,1,3.8.73,7.52,7.52,0,0,1,2.77,2,9,9,0,0,1,1.68,3.14,13.32,13.32,0,0,1,.57,4v16.65h-6.3V143.27a5.63,5.63,0,0,0-1.1-3.71,4.1,4.1,0,0,0-3.34-1.31A6.56,6.56,0,0,0,174,139a11,11,0,0,0-2.7,2v18.92H165V122h6.3Z"/><path class="cls-1" d="M199.66,138.29a11.28,11.28,0,0,1,2.91-3.68,6.19,6.19,0,0,1,4-1.34,4.87,4.87,0,0,1,2.91.79l-.41,4.72a1.22,1.22,0,0,1-.37.65,1,1,0,0,1-.65.19,7.31,7.31,0,0,1-1.13-.13,8.78,8.78,0,0,0-1.47-.13,5.27,5.27,0,0,0-1.86.31,4.68,4.68,0,0,0-1.47.88,6,6,0,0,0-1.15,1.39,13.65,13.65,0,0,0-.93,1.86v16.12h-6.3V133.75h3.7a1.52,1.52,0,0,1,1.86,1.58Z"/><path class="cls-1" d="M223.58,133.35a14.29,14.29,0,0,1,5.29.94A11.62,11.62,0,0,1,233,137a11.78,11.78,0,0,1,2.61,4.23,17.52,17.52,0,0,1,0,11.19,12,12,0,0,1-2.61,4.26,11.43,11.43,0,0,1-4.08,2.7,14.29,14.29,0,0,1-5.29.94,14.46,14.46,0,0,1-5.33-.94,11.41,11.41,0,0,1-4.09-2.7,12.15,12.15,0,0,1-2.63-4.26,17.3,17.3,0,0,1,0-11.19,11.9,11.9,0,0,1,2.63-4.23,11.6,11.6,0,0,1,4.09-2.68A14.46,14.46,0,0,1,223.58,133.35Zm0,22.11a5.54,5.54,0,0,0,4.83-2.19q1.57-2.19,1.57-6.43a11.13,11.13,0,0,0-1.57-6.45,5.52,5.52,0,0,0-4.83-2.22,5.63,5.63,0,0,0-4.91,2.23,11,11,0,0,0-1.59,6.44,10.87,10.87,0,0,0,1.59,6.41A5.65,5.65,0,0,0,223.58,155.45Z"/><path class="cls-1" d="M247.27,137.32a13.65,13.65,0,0,1,3.65-2.93,9.79,9.79,0,0,1,4.79-1.12,8.58,8.58,0,0,1,3.91.89,8.8,8.8,0,0,1,3.06,2.59,12.44,12.44,0,0,1,2,4.18,21,21,0,0,1,.7,5.7,17.94,17.94,0,0,1-.79,5.43,13.3,13.3,0,0,1-2.26,4.33,10.43,10.43,0,0,1-3.54,2.87,10.31,10.31,0,0,1-4.65,1,9.38,9.38,0,0,1-3.75-.68,9.15,9.15,0,0,1-2.78-1.87v10.71h-6.3V133.75h3.85a1.55,1.55,0,0,1,1.61,1.15Zm.33,15.81a6.19,6.19,0,0,0,2.33,1.84,6.94,6.94,0,0,0,2.74.54,6,6,0,0,0,2.58-.54,5,5,0,0,0,2-1.63,8.06,8.06,0,0,0,1.24-2.77,15.8,15.8,0,0,0,.43-3.94,17.51,17.51,0,0,0-.37-3.89,7.51,7.51,0,0,0-1.06-2.59,4.18,4.18,0,0,0-1.67-1.45,5.2,5.2,0,0,0-2.23-.46,6.37,6.37,0,0,0-3.34.83,10.16,10.16,0,0,0-2.6,2.33Z"/><path class="cls-1" d="M293.29,133.75,279,167.11a2.43,2.43,0,0,1-.73,1,2.22,2.22,0,0,1-1.36.34h-4.69l4.9-10.51-10.58-24.2h5.53a1.74,1.74,0,0,1,1.16.36,2.3,2.3,0,0,1,.63.82l5.56,13.57a12.34,12.34,0,0,1,.47,1.38q.19.69.37,1.4l.46-1.42q.23-.7.51-1.39l5.25-13.54a1.85,1.85,0,0,1,.68-.84,1.8,1.8,0,0,1,1.06-.33Z"/><path class="cls-1" d="M341.29,141.48a20,20,0,0,1-1.35,7.45,16.72,16.72,0,0,1-9.69,9.64,20.76,20.76,0,0,1-7.65,1.35H308.54V123h14.05a20.6,20.6,0,0,1,7.65,1.36,17.26,17.26,0,0,1,5.89,3.8,17,17,0,0,1,3.8,5.83A20,20,0,0,1,341.29,141.48Zm-7,0a17.15,17.15,0,0,0-.8-5.44,11.28,11.28,0,0,0-2.32-4.08,10.12,10.12,0,0,0-3.67-2.56,12.59,12.59,0,0,0-4.86-.89h-7.17v26h7.17a12.58,12.58,0,0,0,4.86-.89,10.12,10.12,0,0,0,3.67-2.56,11.27,11.27,0,0,0,2.32-4.08A17.15,17.15,0,0,0,334.25,141.48Z"/><path class="cls-1" d="M350.85,147.63a12.38,12.38,0,0,0,.71,3.48,7.11,7.11,0,0,0,1.48,2.42,5.78,5.78,0,0,0,2.18,1.43,7.9,7.9,0,0,0,2.79.47,8.65,8.65,0,0,0,2.64-.36,12.42,12.42,0,0,0,1.94-.79q.83-.43,1.45-.79a2.44,2.44,0,0,1,1.21-.36,1.3,1.3,0,0,1,1.17.59l1.81,2.29a10.52,10.52,0,0,1-2.35,2.05,13.18,13.18,0,0,1-2.72,1.33,14.93,14.93,0,0,1-2.88.7,20.67,20.67,0,0,1-2.84.2,14,14,0,0,1-5.07-.91,11.35,11.35,0,0,1-4.08-2.68,12.56,12.56,0,0,1-2.73-4.39,17,17,0,0,1-1-6.06,14.48,14.48,0,0,1,.87-5,12.11,12.11,0,0,1,2.49-4.11,11.71,11.71,0,0,1,4-2.77,13,13,0,0,1,5.27-1,12.8,12.8,0,0,1,4.56.79,10,10,0,0,1,3.59,2.31,10.71,10.71,0,0,1,2.36,3.72,13.88,13.88,0,0,1,.85,5,4.09,4.09,0,0,1-.31,1.93,1.27,1.27,0,0,1-1.17.5Zm12-3.8a7.58,7.58,0,0,0-.34-2.31,5.48,5.48,0,0,0-1-1.9,4.82,4.82,0,0,0-1.75-1.29,6,6,0,0,0-2.46-.47,5.83,5.83,0,0,0-4.3,1.56,7.63,7.63,0,0,0-2,4.41Z"/><path class="cls-1" d="M379.2,137.32a13.65,13.65,0,0,1,3.65-2.93,9.79,9.79,0,0,1,4.79-1.12,8.58,8.58,0,0,1,3.91.89,8.8,8.8,0,0,1,3.06,2.59,12.44,12.44,0,0,1,2,4.18,21,21,0,0,1,.7,5.7,17.94,17.94,0,0,1-.79,5.43,13.3,13.3,0,0,1-2.26,4.33,10.43,10.43,0,0,1-3.54,2.87,10.31,10.31,0,0,1-4.65,1,9.38,9.38,0,0,1-3.75-.68,9.15,9.15,0,0,1-2.78-1.87v10.71h-6.3V133.75h3.85a1.55,1.55,0,0,1,1.61,1.15Zm.33,15.81a6.19,6.19,0,0,0,2.33,1.84,6.94,6.94,0,0,0,2.74.54,6,6,0,0,0,2.58-.54,5,5,0,0,0,2-1.63,8.06,8.06,0,0,0,1.24-2.77,15.8,15.8,0,0,0,.43-3.94,17.51,17.51,0,0,0-.37-3.89,7.51,7.51,0,0,0-1.06-2.59,4.18,4.18,0,0,0-1.67-1.45,5.2,5.2,0,0,0-2.23-.46,6.37,6.37,0,0,0-3.34.83,10.16,10.16,0,0,0-2.6,2.33Z"/><path class="cls-1" d="M401.59,137.4a15.52,15.52,0,0,1,10.86-4.13,10.63,10.63,0,0,1,4.11.75,8.69,8.69,0,0,1,3.06,2.09,9,9,0,0,1,1.9,3.2,12.31,12.31,0,0,1,.65,4.08v16.52h-2.86a2.88,2.88,0,0,1-1.38-.27,1.86,1.86,0,0,1-.77-1.08l-.56-1.89a22.8,22.8,0,0,1-1.94,1.57,11.47,11.47,0,0,1-2,1.13,10.62,10.62,0,0,1-2.18.7,12.59,12.59,0,0,1-2.56.24,10.06,10.06,0,0,1-3.06-.45,6.71,6.71,0,0,1-2.42-1.34,6,6,0,0,1-1.58-2.22,7.87,7.87,0,0,1-.56-3.08,6.15,6.15,0,0,1,.33-2,5.76,5.76,0,0,1,1.08-1.87,9,9,0,0,1,2-1.68,12.73,12.73,0,0,1,2.95-1.38,25.54,25.54,0,0,1,4.07-1,40.66,40.66,0,0,1,5.3-.45v-1.53a5.73,5.73,0,0,0-1.12-3.89,4.11,4.11,0,0,0-3.24-1.26,7.71,7.71,0,0,0-2.54.36,10.53,10.53,0,0,0-1.77.8l-1.39.8a2.75,2.75,0,0,1-1.39.36,1.82,1.82,0,0,1-1.12-.34,2.88,2.88,0,0,1-.74-.8ZM416,148.75a34.73,34.73,0,0,0-4.59.47,12.21,12.21,0,0,0-3,.88,3.92,3.92,0,0,0-1.61,1.25,3.09,3.09,0,0,0,.5,3.93,4.26,4.26,0,0,0,2.56.71,7.47,7.47,0,0,0,3.35-.7,10,10,0,0,0,2.77-2.13Z"/><path class="cls-1" d="M434,138.29a11.28,11.28,0,0,1,2.91-3.68,6.19,6.19,0,0,1,4-1.34,4.87,4.87,0,0,1,2.91.79l-.41,4.72a1.22,1.22,0,0,1-.37.65,1,1,0,0,1-.65.19,7.31,7.31,0,0,1-1.13-.13,8.78,8.78,0,0,0-1.47-.13,5.27,5.27,0,0,0-1.86.31,4.68,4.68,0,0,0-1.47.88,6,6,0,0,0-1.15,1.39,13.65,13.65,0,0,0-.93,1.86v16.12h-6.3V133.75h3.7a1.52,1.52,0,0,1,1.86,1.58Z"/><path class="cls-1" d="M455.83,160.33a6.87,6.87,0,0,1-5.24-1.93,7.42,7.42,0,0,1-1.82-5.32V138.47h-2.68a1.23,1.23,0,0,1-.87-.33,1.29,1.29,0,0,1-.36-1v-2.5l4.21-.69,1.33-7.14a1.4,1.4,0,0,1,.48-.79,1.44,1.44,0,0,1,.92-.28h3.26V134h7v4.49h-7v14.18a2.82,2.82,0,0,0,.6,1.91,2.07,2.07,0,0,0,1.64.69,3,3,0,0,0,1-.14,5.61,5.61,0,0,0,.69-.29l.52-.29a.88.88,0,0,1,.46-.14.73.73,0,0,1,.46.14,2.17,2.17,0,0,1,.38.42l1.89,3.06a9.54,9.54,0,0,1-3.16,1.73A11.77,11.77,0,0,1,455.83,160.33Z"/><path class="cls-1" d="M466.08,159.92V133.75h3.85a1.55,1.55,0,0,1,1.61,1.15l.41,1.94a14.86,14.86,0,0,1,1.44-1.4,9.25,9.25,0,0,1,1.61-1.1,8.68,8.68,0,0,1,1.84-.73,8.2,8.2,0,0,1,2.15-.27,6.11,6.11,0,0,1,4.07,1.34,8.06,8.06,0,0,1,2.38,3.56A8,8,0,0,1,487,136a8.41,8.41,0,0,1,2-1.52,9.27,9.27,0,0,1,2.33-.87,11.18,11.18,0,0,1,2.49-.28,10.46,10.46,0,0,1,3.85.66,7.39,7.39,0,0,1,2.83,1.94,8.54,8.54,0,0,1,1.75,3.11,13.56,13.56,0,0,1,.6,4.21v16.65h-6.3V143.27a5.6,5.6,0,0,0-1.1-3.76,4,4,0,0,0-3.21-1.26,4.8,4.8,0,0,0-1.8.33,4.3,4.3,0,0,0-1.45,1,4.36,4.36,0,0,0-1,1.57,6.1,6.1,0,0,0-.36,2.17v16.65H481.3V143.27a5.7,5.7,0,0,0-1.06-3.83,3.92,3.92,0,0,0-3.1-1.2,5.09,5.09,0,0,0-2.56.68,8.54,8.54,0,0,0-2.21,1.85v19.15Z"/><path class="cls-1" d="M513.64,147.63a12.38,12.38,0,0,0,.71,3.48,7.11,7.11,0,0,0,1.48,2.42A5.78,5.78,0,0,0,518,155a7.9,7.9,0,0,0,2.79.47,8.65,8.65,0,0,0,2.64-.36,12.42,12.42,0,0,0,1.94-.79q.83-.43,1.45-.79a2.44,2.44,0,0,1,1.21-.36,1.3,1.3,0,0,1,1.17.59L531,156a10.52,10.52,0,0,1-2.35,2.05A13.18,13.18,0,0,1,526,159.4a14.93,14.93,0,0,1-2.88.7,20.67,20.67,0,0,1-2.84.2,14,14,0,0,1-5.07-.91,11.35,11.35,0,0,1-4.08-2.68,12.56,12.56,0,0,1-2.73-4.39,17,17,0,0,1-1-6.06,14.48,14.48,0,0,1,.87-5,12.11,12.11,0,0,1,2.49-4.11,11.71,11.71,0,0,1,4-2.77,13,13,0,0,1,5.27-1,12.8,12.8,0,0,1,4.56.79,10,10,0,0,1,3.59,2.31,10.71,10.71,0,0,1,2.36,3.72,13.88,13.88,0,0,1,.85,5,4.09,4.09,0,0,1-.31,1.93,1.27,1.27,0,0,1-1.17.5Zm12-3.8a7.58,7.58,0,0,0-.34-2.31,5.48,5.48,0,0,0-1-1.9,4.82,4.82,0,0,0-1.75-1.29,6,6,0,0,0-2.46-.47,5.83,5.83,0,0,0-4.3,1.56,7.63,7.63,0,0,0-2,4.41Z"/><path class="cls-1" d="M541.92,137a17,17,0,0,1,1.67-1.47,10.55,10.55,0,0,1,1.86-1.15,10.44,10.44,0,0,1,2.1-.74,10.58,10.58,0,0,1,2.45-.27,9.39,9.39,0,0,1,3.8.73,7.52,7.52,0,0,1,2.77,2,9,9,0,0,1,1.68,3.14,13.32,13.32,0,0,1,.57,4v16.65h-6.3V143.27a5.63,5.63,0,0,0-1.1-3.71,4.1,4.1,0,0,0-3.34-1.31A6.56,6.56,0,0,0,545,139a11,11,0,0,0-2.7,2v18.92H536V133.75h3.85a1.55,1.55,0,0,1,1.61,1.15Z"/><path class="cls-1" d="M573.15,160.33a6.87,6.87,0,0,1-5.24-1.93,7.42,7.42,0,0,1-1.82-5.32V138.47h-2.68a1.23,1.23,0,0,1-.87-.33,1.29,1.29,0,0,1-.36-1v-2.5l4.21-.69,1.33-7.14a1.4,1.4,0,0,1,.48-.79,1.44,1.44,0,0,1,.92-.28h3.26V134h7v4.49h-7v14.18a2.82,2.82,0,0,0,.6,1.91,2.07,2.07,0,0,0,1.64.69,3,3,0,0,0,1-.14,5.61,5.61,0,0,0,.69-.29l.52-.29a.88.88,0,0,1,.46-.14.73.73,0,0,1,.46.14,2.17,2.17,0,0,1,.38.42L580,158a9.54,9.54,0,0,1-3.16,1.73A11.77,11.77,0,0,1,573.15,160.33Z"/></svg>